{"glyphs":{"0":{"ha":1935,"x_min":0,"x_max":0,"o":"m 69 810 l 69 162 b 232 0 69 73 142 0 l 1703 0 b 1865 162 1792 0 1865 73 l 1865 810 b 1703 972 1865 900 1792 972 l 232 972 b 69 810 142 972 69 900 z m 1345 294 l 981 747 b 1013 813 960 774 979 813 l 1377 813 b 1418 773 1399 813 1418 795 l 1418 319 b 1345 294 1418 281 1369 264 z m 589 678 l 953 225 b 921 159 974 198 956 159 l 558 159 b 517 200 535 159 517 177 l 517 653 b 589 678 517 691 565 708 z "},"1":{"ha":840,"x_min":0,"x_max":0,"o":"m 149 972 b 69 893 105 972 69 937 b 149 813 69 849 105 813 l 242 813 b 323 732 287 813 323 777 l 323 81 b 404 0 323 36 359 0 l 689 0 b 771 81 734 0 771 36 l 771 887 b 686 972 771 934 733 972 z "},"2":{"ha":1892,"x_min":0,"x_max":0,"o":"m 1823 810 b 1660 972 1823 900 1750 972 l 149 972 b 69 893 105 972 69 937 b 149 813 69 849 105 813 l 1300 813 b 1375 738 1342 813 1375 780 b 1300 663 1375 697 1342 663 l 228 663 b 69 504 141 663 69 592 l 69 162 b 232 0 69 73 142 0 l 1743 0 b 1823 80 1787 0 1823 36 b 1743 159 1823 123 1787 159 l 592 159 b 517 234 551 159 517 193 l 517 429 b 592 504 517 470 551 504 l 1660 504 b 1823 666 1750 504 1823 577 z "},"3":{"ha":1892,"x_min":0,"x_max":0,"o":"m 69 893 b 149 813 69 849 105 813 l 1294 813 b 1375 732 1339 813 1375 777 l 1375 647 b 1294 566 1375 602 1339 566 l 766 566 b 687 486 722 566 687 530 b 766 407 687 442 722 407 l 1294 407 b 1375 325 1339 407 1375 370 l 1375 240 b 1294 159 1375 195 1339 159 l 149 159 b 69 80 105 159 69 123 b 149 0 69 36 105 0 l 1664 0 b 1823 159 1752 0 1823 71 l 1823 813 b 1664 972 1823 901 1752 972 l 149 972 b 69 893 105 972 69 937 z "},"4":{"ha":1892,"x_min":0,"x_max":0,"o":"m 151 972 b 69 891 106 972 69 936 l 69 566 b 228 407 69 478 141 407 l 1294 407 b 1375 325 1339 407 1375 370 l 1375 81 b 1456 0 1375 36 1412 0 l 1742 0 b 1823 81 1786 0 1823 36 l 1823 891 b 1742 972 1823 936 1786 972 l 1457 972 b 1375 891 1412 972 1375 936 l 1375 647 b 1294 566 1375 602 1339 566 l 598 566 b 517 647 553 566 517 602 l 517 891 b 436 972 517 936 481 972 z "},"5":{"ha":1892,"x_min":0,"x_max":0,"o":"m 1823 504 b 1664 663 1823 592 1752 663 l 592 663 b 517 738 551 663 517 697 b 592 813 517 780 551 813 l 1743 813 b 1823 893 1787 813 1823 849 b 1743 972 1823 937 1787 972 l 228 972 b 69 813 141 972 69 901 l 69 663 b 228 504 69 575 141 504 l 1300 504 b 1375 429 1342 504 1375 470 l 1375 234 b 1300 159 1375 193 1342 159 l 149 159 b 69 80 105 159 69 123 b 149 0 69 36 105 0 l 1664 0 b 1823 159 1752 0 1823 71 z "},"6":{"ha":1892,"x_min":0,"x_max":0,"o":"m 517 732 b 598 813 517 777 553 813 l 1743 813 b 1823 893 1787 813 1823 849 b 1743 972 1823 937 1787 972 l 232 972 b 69 810 142 972 69 900 l 69 162 b 232 0 69 73 142 0 l 1660 0 b 1823 162 1750 0 1823 73 l 1823 403 b 1660 566 1823 493 1750 566 l 598 566 b 517 647 553 566 517 602 z m 1375 325 l 1375 240 b 1294 159 1375 195 1339 159 l 598 159 b 517 240 553 159 517 195 l 517 325 b 598 407 517 370 553 407 l 1294 407 b 1375 325 1339 407 1375 370 z "},"7":{"ha":1892,"x_min":0,"x_max":0,"o":"m 149 972 b 69 893 105 972 69 937 b 149 813 69 849 105 813 l 1294 813 b 1375 732 1339 813 1375 777 l 1375 81 b 1456 0 1375 36 1412 0 l 1742 0 b 1823 81 1786 0 1823 36 l 1823 810 b 1660 972 1823 900 1750 972 z "},"8":{"ha":1892,"x_min":0,"x_max":0,"o":"m 69 162 b 232 0 69 73 142 0 l 1660 0 b 1823 162 1750 0 1823 73 l 1823 810 b 1660 972 1823 900 1750 972 l 232 972 b 69 810 142 972 69 900 z m 598 813 l 1294 813 b 1375 732 1339 813 1375 777 l 1375 647 b 1294 566 1375 602 1339 566 l 598 566 b 517 647 553 566 517 602 l 517 732 b 598 813 517 777 553 813 z m 1294 159 l 598 159 b 517 240 553 159 517 195 l 517 325 b 598 407 517 370 553 407 l 1294 407 b 1375 325 1339 407 1375 370 l 1375 240 b 1294 159 1375 195 1339 159 z "},"9":{"ha":1892,"x_min":0,"x_max":0,"o":"m 228 407 l 1294 407 b 1375 325 1339 407 1375 370 l 1375 240 b 1294 159 1375 195 1339 159 l 149 159 b 69 80 105 159 69 123 b 149 0 69 36 105 0 l 1660 0 b 1823 162 1750 0 1823 73 l 1823 810 b 1660 972 1823 900 1750 972 l 232 972 b 69 810 142 972 69 900 l 69 566 b 228 407 69 478 141 407 z m 517 647 l 517 732 b 598 813 517 777 553 813 l 1294 813 b 1375 732 1339 813 1375 777 l 1375 647 b 1294 566 1375 602 1339 566 l 598 566 b 517 647 553 566 517 602 z "},"\u0000":{"ha":0,"x_min":0,"x_max":0,"o":""},"\n":{"ha":0,"x_min":0,"x_max":0,"o":""},"\r":{"ha":0,"x_min":0,"x_max":0,"o":""}," ":{"ha":967,"x_min":0,"x_max":0,"o":""},"!":{"ha":940,"x_min":0,"x_max":0,"o":"m 843 531 b 579 639 690 557 619 577 b 504 1063 536 706 521 824 b 470 1094 503 1081 488 1094 b 437 1063 453 1094 438 1081 b 98 531 404 593 381 578 b 69 498 81 529 69 515 b 98 465 69 481 81 467 b 362 357 251 440 321 419 b 437 -67 405 290 420 172 b 470 -99 438 -85 453 -99 b 504 -67 488 -99 503 -85 b 843 465 537 403 559 418 b 871 498 859 467 871 481 b 843 531 871 515 859 529 z "},"\"":{"ha":454,"x_min":0,"x_max":0,"o":"m 133 1019 b 69 956 98 1019 69 991 l 69 717 b 133 654 69 682 98 654 b 196 717 167 654 196 682 l 196 956 b 133 1019 196 991 167 1019 z m 321 1019 b 258 956 286 1019 258 991 l 258 717 b 321 654 258 682 286 654 b 384 717 356 654 384 682 l 384 956 b 321 1019 384 991 356 1019 z "},"“":{"ha":454,"x_min":0,"x_max":0,"o":"m 133 1019 b 69 956 98 1019 69 991 l 69 717 b 133 654 69 682 98 654 b 196 717 167 654 196 682 l 196 956 b 133 1019 196 991 167 1019 z m 321 1019 b 258 956 286 1019 258 991 l 258 717 b 321 654 258 682 286 654 b 384 717 356 654 384 682 l 384 956 b 321 1019 384 991 356 1019 z "},"”":{"ha":454,"x_min":0,"x_max":0,"o":"m 133 1019 b 69 956 98 1019 69 991 l 69 717 b 133 654 69 682 98 654 b 196 717 167 654 196 682 l 196 956 b 133 1019 196 991 167 1019 z m 321 1019 b 258 956 286 1019 258 991 l 258 717 b 321 654 258 682 286 654 b 384 717 356 654 384 682 l 384 956 b 321 1019 384 991 356 1019 z "},"#":{"ha":1326,"x_min":0,"x_max":0,"o":"m 1198 598 b 824 695 984 621 879 641 b 728 1069 770 749 751 854 b 663 1127 724 1102 696 1127 b 599 1069 630 1127 602 1102 b 502 695 575 855 556 750 b 127 598 447 641 342 621 b 69 534 94 595 69 567 b 127 469 69 501 94 473 b 502 372 342 446 447 427 b 598 -2 556 318 575 213 b 663 -60 602 -35 630 -60 b 728 -2 696 -60 724 -35 b 824 373 751 213 770 318 b 1198 469 879 427 984 446 b 1256 534 1231 473 1256 501 b 1198 598 1256 567 1231 595 z "},"$":{"ha":1435,"x_min":0,"x_max":0,"o":"m 1198 525 b 1257 589 1231 528 1257 556 b 1198 654 1257 622 1231 650 b 824 750 984 677 879 696 b 728 1125 770 805 751 910 b 663 1183 724 1158 696 1183 b 599 1125 630 1183 602 1158 b 502 750 575 910 556 805 b 127 654 447 696 342 677 b 69 589 94 650 69 622 b 127 525 69 556 94 528 b 502 428 342 502 447 482 b 598 54 556 373 575 268 b 663 -4 602 21 630 -4 b 728 54 696 -4 724 21 b 824 428 751 268 770 373 b 1198 525 879 482 984 502 z m 1338 204 b 1166 249 1239 215 1191 224 b 1122 421 1141 274 1132 322 b 1092 448 1120 436 1107 448 b 1062 421 1077 448 1064 436 b 1018 249 1051 322 1043 274 b 845 204 993 224 944 215 b 819 175 830 203 819 190 b 845 145 819 159 830 146 b 1018 100 944 134 993 125 b 1062 -72 1043 75 1051 27 b 1092 -99 1064 -87 1077 -99 b 1122 -72 1107 -99 1120 -87 b 1166 100 1132 27 1141 75 b 1338 145 1191 125 1239 134 b 1365 175 1353 146 1365 159 b 1338 204 1365 190 1353 203 z "},"%":{"ha":1069,"x_min":0,"x_max":0,"o":"m 712 549 l 992 776 b 973 809 1009 790 994 817 l 636 680 b 610 695 625 676 612 683 l 553 1051 b 516 1051 550 1073 519 1073 l 459 695 b 433 680 457 683 444 676 l 96 809 b 77 776 75 817 60 790 l 357 549 b 357 519 367 541 367 527 l 77 291 b 96 259 60 278 75 251 l 433 388 b 459 373 444 392 457 385 l 516 16 b 553 16 519 -5 550 -5 l 610 373 b 636 388 612 385 625 392 l 973 259 b 992 291 994 251 1009 278 l 712 519 b 712 549 702 527 702 541 z "},"&":{"ha":1068,"x_min":0,"x_max":0,"o":"m 396 359 l 450 88 b 515 78 457 56 499 49 l 650 319 b 685 336 657 331 671 338 l 959 304 b 989 363 992 300 1012 339 l 802 566 b 796 604 792 576 790 591 l 911 855 b 865 902 925 885 894 915 l 614 786 b 575 792 601 780 586 783 l 372 980 b 314 950 348 1002 310 982 l 346 675 b 328 641 348 661 341 648 l 87 506 b 98 440 59 490 66 447 l 369 386 b 396 359 383 384 393 373 z "},"'":{"ha":265,"x_min":0,"x_max":0,"o":"m 133 654 b 196 717 167 654 196 682 l 196 956 b 133 1019 196 991 167 1019 b 69 956 98 1019 69 991 l 69 717 b 133 654 69 682 98 654 z "},"‘":{"ha":265,"x_min":0,"x_max":0,"o":"m 133 654 b 196 717 167 654 196 682 l 196 956 b 133 1019 196 991 167 1019 b 69 956 98 1019 69 991 l 69 717 b 133 654 69 682 98 654 z "},"’":{"ha":265,"x_min":0,"x_max":0,"o":"m 133 654 b 196 717 167 654 196 682 l 196 956 b 133 1019 196 991 167 1019 b 69 956 98 1019 69 991 l 69 717 b 133 654 69 682 98 654 z "},"(":{"ha":974,"x_min":0,"x_max":0,"o":"m 886 393 l 739 551 l 829 748 b 825 814 839 769 838 794 b 767 846 812 834 790 846 b 738 839 757 846 747 843 l 542 749 l 383 895 b 337 914 370 907 354 914 b 285 890 317 914 298 905 b 268 836 271 876 265 856 l 293 622 l 105 517 b 70 446 79 502 66 474 b 125 389 75 417 96 394 l 337 346 l 379 135 b 447 79 385 102 413 79 b 507 114 472 79 495 92 l 612 303 l 827 277 b 835 277 830 277 832 277 b 898 318 862 277 887 293 b 886 393 909 344 905 372 z m 832 318 l 609 344 b 581 330 598 345 587 340 l 471 134 b 419 143 459 111 424 117 l 375 362 b 353 385 373 374 364 382 l 133 428 b 125 481 107 434 102 468 l 320 591 b 334 619 330 596 336 607 l 308 841 b 356 866 305 868 336 883 l 520 714 b 551 709 529 706 541 704 l 755 802 b 793 765 779 813 804 789 l 699 561 b 704 530 694 551 696 538 l 856 365 b 832 318 874 346 858 315 z "},")":{"ha":1243,"x_min":0,"x_max":0,"o":"m 374 865 l 99 1065 b 73 1039 82 1077 61 1056 l 273 764 b 273 698 287 744 287 718 l 73 423 b 99 397 61 406 82 385 l 371 595 b 440 591 392 610 421 608 l 1137 -30 b 1168 1 1158 -49 1187 -20 l 547 698 b 543 767 530 717 528 746 l 741 1039 b 715 1065 753 1056 732 1077 l 440 865 b 374 865 420 851 394 851 z "},"*":{"ha":1389,"x_min":0,"x_max":0,"o":"m 802 546 b 796 585 792 557 790 572 l 911 836 b 865 882 925 865 894 896 l 614 767 b 575 773 601 761 586 763 l 372 960 b 314 930 348 982 310 963 l 346 656 b 328 621 348 642 341 628 l 87 486 b 98 421 59 470 66 427 l 369 367 b 396 339 383 364 393 353 l 450 69 b 515 58 457 37 499 30 l 650 299 b 685 317 657 312 671 319 l 959 285 b 989 343 992 281 1012 319 z m 1315 717 b 1302 745 1325 728 1317 746 l 1174 737 b 1158 746 1167 737 1161 740 l 1102 862 b 1071 858 1095 875 1075 873 l 1039 734 b 1026 722 1038 728 1032 723 l 899 704 b 892 674 884 702 880 682 l 1001 605 b 1008 588 1006 601 1009 595 l 986 462 b 1013 447 984 447 1001 437 l 1112 528 b 1130 530 1117 533 1124 533 l 1243 470 b 1266 491 1257 463 1272 477 l 1219 610 b 1223 628 1216 616 1218 623 z m 1188 338 b 1185 345 1186 340 1185 343 l 1198 400 b 1187 407 1200 406 1192 411 l 1142 374 b 1134 374 1140 373 1136 372 l 1086 403 b 1076 395 1081 407 1074 401 l 1093 342 b 1091 334 1094 339 1093 336 l 1048 298 b 1053 285 1043 293 1047 285 l 1109 285 b 1116 281 1112 285 1115 283 l 1137 229 b 1150 230 1140 223 1148 223 l 1168 283 b 1174 288 1169 286 1171 288 l 1230 292 b 1233 305 1236 293 1239 301 z "},"+":{"ha":1063,"x_min":0,"x_max":0,"o":"m 519 730 l 117 885 b 83 826 80 899 52 851 l 417 555 b 430 534 424 550 429 542 l 497 108 b 565 108 503 69 559 69 l 632 534 b 645 555 633 542 638 550 l 979 826 b 945 885 1010 851 982 899 l 543 730 b 519 730 535 727 527 727 z "},",":{"ha":265,"x_min":0,"x_max":0,"o":"m 133 0 b 196 63 167 0 196 28 l 196 302 b 133 365 196 337 167 365 b 69 302 98 365 69 337 l 69 63 b 133 0 69 28 98 0 z "},"-":{"ha":1338,"x_min":0,"x_max":0,"o":"m 516 687 b 513 752 500 705 499 732 l 698 1007 b 674 1031 710 1023 690 1042 l 416 843 b 355 843 398 830 373 830 l 97 1031 b 73 1007 81 1042 61 1023 l 260 749 b 260 688 273 730 273 706 l 73 430 b 97 406 61 414 81 394 l 352 590 b 417 587 371 605 398 603 l 1069 5 b 1098 34 1088 -12 1115 15 z m 1264 342 l 934 713 b 932 750 925 723 924 738 l 1037 894 b 1024 908 1044 903 1033 914 l 877 801 b 842 801 867 794 853 794 l 696 908 b 682 894 687 914 675 903 l 788 748 b 788 713 796 737 796 723 l 682 566 b 696 553 675 557 687 546 l 840 658 b 877 656 852 666 867 665 l 1248 325 b 1264 342 1259 316 1274 331 z "},".":{"ha":397,"x_min":0,"x_max":0,"o":"m 199 0 b 328 129 270 0 328 58 b 199 258 328 201 270 258 b 69 129 127 258 69 201 b 199 0 69 58 127 0 z "},"/":{"ha":1435,"x_min":0,"x_max":0,"o":"m 1198 623 b 1257 688 1231 627 1257 655 b 1198 752 1257 721 1231 749 b 824 849 984 775 879 795 b 728 1223 770 903 751 1008 b 663 1281 724 1256 696 1281 b 599 1223 630 1281 602 1256 b 502 849 575 1008 556 903 b 127 752 447 795 342 775 b 69 688 94 749 69 721 b 127 623 69 655 94 627 b 502 526 342 600 447 581 b 598 152 556 472 575 367 b 663 94 602 119 630 94 b 728 152 696 94 724 119 b 824 526 751 367 770 472 b 1198 623 879 581 984 600 z m 1338 303 b 1166 347 1239 313 1191 322 b 1122 520 1141 372 1132 421 b 1092 546 1120 535 1107 546 b 1062 520 1077 546 1064 535 b 1018 347 1051 421 1043 372 b 845 303 993 322 944 313 b 819 273 830 301 819 288 b 845 243 819 258 830 245 b 1018 199 944 233 993 224 b 1062 27 1043 174 1051 126 b 1092 0 1064 12 1077 0 b 1122 27 1107 0 1120 12 b 1166 199 1132 126 1141 174 b 1338 243 1191 224 1239 233 b 1365 273 1353 245 1365 258 b 1338 303 1365 288 1353 301 z "},":":{"ha":397,"x_min":0,"x_max":0,"o":"m 199 368 b 328 497 270 368 328 426 b 199 627 328 569 270 627 b 69 497 127 627 69 569 b 199 368 69 426 127 368 z m 199 258 b 69 129 127 258 69 201 b 199 0 69 58 127 0 b 328 129 270 0 328 58 b 199 258 328 201 270 258 z "},";":{"ha":397,"x_min":0,"x_max":0,"o":"m 199 365 b 136 302 164 365 136 337 l 136 63 b 199 0 136 28 164 0 b 262 63 234 0 262 28 l 262 302 b 199 365 262 337 234 365 z m 199 733 b 69 604 127 733 69 675 b 199 475 69 533 127 475 b 328 604 270 475 328 533 b 199 733 328 675 270 733 z "},"<":{"ha":1435,"x_min":0,"x_max":0,"o":"m 1198 623 b 1257 688 1231 627 1257 655 b 1198 752 1257 721 1231 749 b 824 849 984 775 879 795 b 728 1223 770 903 751 1008 b 663 1281 724 1256 696 1281 b 599 1223 630 1281 602 1256 b 502 849 575 1008 556 903 b 127 752 447 795 342 775 b 69 688 94 749 69 721 b 127 623 69 655 94 627 b 502 526 342 600 447 581 b 598 152 556 472 575 367 b 663 94 602 119 630 94 b 728 152 696 94 724 119 b 824 526 751 367 770 472 b 1198 623 879 581 984 600 z m 1338 303 b 1166 347 1239 313 1191 322 b 1122 520 1141 372 1132 421 b 1092 546 1120 535 1107 546 b 1062 520 1077 546 1064 535 b 1018 347 1051 421 1043 372 b 845 303 993 322 944 313 b 819 273 830 301 819 288 b 845 243 819 258 830 245 b 1018 199 944 233 993 224 b 1062 27 1043 174 1051 126 b 1092 0 1064 12 1077 0 b 1122 27 1107 0 1120 12 b 1166 199 1132 126 1141 174 b 1338 243 1191 224 1239 233 b 1365 273 1353 245 1365 258 b 1338 303 1365 288 1353 301 z "},"=":{"ha":976,"x_min":0,"x_max":0,"o":"m 552 869 l 504 1169 b 472 1169 501 1187 475 1187 l 424 869 b 383 828 421 848 404 831 l 83 780 b 83 748 65 777 65 751 l 379 701 b 421 655 402 697 419 678 l 468 -176 b 507 -176 470 -201 506 -201 l 555 655 b 597 701 556 678 574 697 l 893 748 b 893 780 911 751 911 777 l 593 828 b 552 869 572 831 555 848 z "},">":{"ha":1435,"x_min":0,"x_max":0,"o":"m 1198 623 b 1257 688 1231 627 1257 655 b 1198 752 1257 721 1231 749 b 824 849 984 775 879 795 b 728 1223 770 903 751 1008 b 663 1281 724 1256 696 1281 b 599 1223 630 1281 602 1256 b 502 849 575 1008 556 903 b 127 752 447 795 342 775 b 69 688 94 749 69 721 b 127 623 69 655 94 627 b 502 526 342 600 447 581 b 598 152 556 472 575 367 b 663 94 602 119 630 94 b 728 152 696 94 724 119 b 824 526 751 367 770 472 b 1198 623 879 581 984 600 z m 1338 303 b 1166 347 1239 313 1191 322 b 1122 520 1141 372 1132 421 b 1092 546 1120 535 1107 546 b 1062 520 1077 546 1064 535 b 1018 347 1051 421 1043 372 b 845 303 993 322 944 313 b 819 273 830 301 819 288 b 845 243 819 258 830 245 b 1018 199 944 233 993 224 b 1062 27 1043 174 1051 126 b 1092 0 1064 12 1077 0 b 1122 27 1107 0 1120 12 b 1166 199 1132 126 1141 174 b 1338 243 1191 224 1239 233 b 1365 273 1353 245 1365 258 b 1338 303 1365 288 1353 301 z "},"?":{"ha":1435,"x_min":0,"x_max":0,"o":"m 1198 623 b 1257 688 1231 627 1257 655 b 1198 752 1257 721 1231 749 b 824 849 984 775 879 795 b 728 1223 770 903 751 1008 b 663 1281 724 1256 696 1281 b 599 1223 630 1281 602 1256 b 502 849 575 1008 556 903 b 127 752 447 795 342 775 b 69 688 94 749 69 721 b 127 623 69 655 94 627 b 502 526 342 600 447 581 b 598 152 556 472 575 367 b 663 94 602 119 630 94 b 728 152 696 94 724 119 b 824 526 751 367 770 472 b 1198 623 879 581 984 600 z m 1338 303 b 1166 347 1239 313 1191 322 b 1122 520 1141 372 1132 421 b 1092 546 1120 535 1107 546 b 1062 520 1077 546 1064 535 b 1018 347 1051 421 1043 372 b 845 303 993 322 944 313 b 819 273 830 301 819 288 b 845 243 819 258 830 245 b 1018 199 944 233 993 224 b 1062 27 1043 174 1051 126 b 1092 0 1064 12 1077 0 b 1122 27 1107 0 1120 12 b 1166 199 1132 126 1141 174 b 1338 243 1191 224 1239 233 b 1365 273 1353 245 1365 258 b 1338 303 1365 288 1353 301 z "},"@":{"ha":1069,"x_min":0,"x_max":0,"o":"m 982 299 b 821 365 889 314 846 327 b 786 501 803 392 793 433 b 843 511 804 505 822 508 b 871 545 859 514 871 528 b 843 578 871 561 859 575 b 778 589 819 582 798 586 b 775 624 777 600 776 612 b 755 643 775 634 766 643 b 734 624 744 643 735 634 b 732 599 734 615 733 607 b 579 686 653 618 608 641 b 504 1109 536 752 521 870 b 470 1141 503 1127 488 1141 b 437 1109 453 1141 438 1127 b 98 578 404 639 381 624 b 69 544 81 575 69 561 b 98 511 69 528 81 514 b 362 403 251 486 321 465 b 437 -21 405 337 420 219 b 470 -52 438 -38 453 -52 b 504 -21 488 -52 503 -38 b 532 257 512 99 520 189 b 688 192 622 242 664 229 b 734 -67 715 151 724 79 b 755 -86 735 -78 744 -86 b 775 -67 766 -86 775 -78 b 982 258 795 221 809 230 b 1000 278 992 260 1000 268 b 982 299 1000 289 992 297 z m 540 301 b 722 488 567 423 615 462 b 540 301 704 337 670 323 z m 589 857 b 668 825 635 850 656 843 b 691 697 681 805 686 769 b 701 688 691 692 696 688 b 711 697 706 688 711 692 b 813 857 721 839 728 843 b 821 867 818 858 821 862 b 813 877 821 872 818 876 b 734 910 767 885 746 891 b 711 1037 721 929 716 965 b 701 1046 711 1042 706 1046 b 691 1037 696 1046 691 1042 b 589 877 681 896 674 891 b 581 867 584 876 581 872 b 589 857 581 862 584 858 z "},"A":{"ha":1935,"x_min":0,"x_max":0,"o":"m 69 810 l 69 81 b 151 0 69 36 106 0 l 436 1 b 517 82 481 1 517 37 l 517 241 b 598 322 517 285 553 322 l 1000 322 b 1083 405 1046 322 1083 359 b 1000 488 1083 451 1046 488 l 598 486 b 517 568 553 486 517 523 l 517 732 b 598 813 517 777 553 813 l 1336 813 b 1418 732 1381 813 1418 777 l 1418 82 b 1499 1 1418 37 1454 1 l 1784 0 b 1865 81 1829 0 1865 36 l 1865 810 b 1703 972 1865 900 1792 972 l 232 972 b 69 810 142 972 69 900 z "},"À":{"ha":1935,"x_min":0,"x_max":0,"o":"m 69 810 l 69 81 b 151 0 69 36 106 0 l 436 1 b 517 82 481 1 517 37 l 517 241 b 598 322 517 285 553 322 l 1000 322 b 1083 405 1046 322 1083 359 b 1000 488 1083 451 1046 488 l 598 486 b 517 568 553 486 517 523 l 517 732 b 598 813 517 777 553 813 l 1336 813 b 1418 732 1381 813 1418 777 l 1418 82 b 1499 1 1418 37 1454 1 l 1784 0 b 1865 81 1829 0 1865 36 l 1865 810 b 1703 972 1865 900 1792 972 l 232 972 b 69 810 142 972 69 900 z "},"Á":{"ha":1935,"x_min":0,"x_max":0,"o":"m 69 810 l 69 81 b 151 0 69 36 106 0 l 436 1 b 517 82 481 1 517 37 l 517 241 b 598 322 517 285 553 322 l 1000 322 b 1083 405 1046 322 1083 359 b 1000 488 1083 451 1046 488 l 598 486 b 517 568 553 486 517 523 l 517 732 b 598 813 517 777 553 813 l 1336 813 b 1418 732 1381 813 1418 777 l 1418 82 b 1499 1 1418 37 1454 1 l 1784 0 b 1865 81 1829 0 1865 36 l 1865 810 b 1703 972 1865 900 1792 972 l 232 972 b 69 810 142 972 69 900 z "},"Â":{"ha":1935,"x_min":0,"x_max":0,"o":"m 69 810 l 69 81 b 151 0 69 36 106 0 l 436 1 b 517 82 481 1 517 37 l 517 241 b 598 322 517 285 553 322 l 1000 322 b 1083 405 1046 322 1083 359 b 1000 488 1083 451 1046 488 l 598 486 b 517 568 553 486 517 523 l 517 732 b 598 813 517 777 553 813 l 1336 813 b 1418 732 1381 813 1418 777 l 1418 82 b 1499 1 1418 37 1454 1 l 1784 0 b 1865 81 1829 0 1865 36 l 1865 810 b 1703 972 1865 900 1792 972 l 232 972 b 69 810 142 972 69 900 z "},"Ã":{"ha":1935,"x_min":0,"x_max":0,"o":"m 69 810 l 69 81 b 151 0 69 36 106 0 l 436 1 b 517 82 481 1 517 37 l 517 241 b 598 322 517 285 553 322 l 1000 322 b 1083 405 1046 322 1083 359 b 1000 488 1083 451 1046 488 l 598 486 b 517 568 553 486 517 523 l 517 732 b 598 813 517 777 553 813 l 1336 813 b 1418 732 1381 813 1418 777 l 1418 82 b 1499 1 1418 37 1454 1 l 1784 0 b 1865 81 1829 0 1865 36 l 1865 810 b 1703 972 1865 900 1792 972 l 232 972 b 69 810 142 972 69 900 z "},"Ä":{"ha":1935,"x_min":0,"x_max":0,"o":"m 69 810 l 69 81 b 151 0 69 36 106 0 l 436 1 b 517 82 481 1 517 37 l 517 241 b 598 322 517 285 553 322 l 1000 322 b 1083 405 1046 322 1083 359 b 1000 488 1083 451 1046 488 l 598 486 b 517 568 553 486 517 523 l 517 732 b 598 813 517 777 553 813 l 1336 813 b 1418 732 1381 813 1418 777 l 1418 82 b 1499 1 1418 37 1454 1 l 1784 0 b 1865 81 1829 0 1865 36 l 1865 810 b 1703 972 1865 900 1792 972 l 232 972 b 69 810 142 972 69 900 z "},"Å":{"ha":1935,"x_min":0,"x_max":0,"o":"m 69 810 l 69 81 b 151 0 69 36 106 0 l 436 1 b 517 82 481 1 517 37 l 517 241 b 598 322 517 285 553 322 l 1000 322 b 1083 405 1046 322 1083 359 b 1000 488 1083 451 1046 488 l 598 486 b 517 568 553 486 517 523 l 517 732 b 598 813 517 777 553 813 l 1336 813 b 1418 732 1381 813 1418 777 l 1418 82 b 1499 1 1418 37 1454 1 l 1784 0 b 1865 81 1829 0 1865 36 l 1865 810 b 1703 972 1865 900 1792 972 l 232 972 b 69 810 142 972 69 900 z "},"B":{"ha":1892,"x_min":0,"x_max":0,"o":"m 1742 435 l 1714 451 b 1714 521 1687 467 1687 506 l 1742 538 b 1823 678 1792 567 1823 620 l 1823 810 b 1660 972 1823 900 1750 972 l 232 972 b 69 810 142 972 69 900 l 69 81 b 151 0 69 36 106 0 l 436 0 b 517 81 481 0 517 36 l 517 732 b 598 813 517 777 553 813 l 1252 813 b 1375 690 1320 813 1375 758 b 1252 566 1375 621 1320 566 l 766 566 b 688 479 720 566 683 526 b 771 407 692 437 730 407 l 1252 407 b 1375 283 1320 407 1375 351 b 1252 159 1375 214 1320 159 l 766 159 b 688 72 720 159 683 119 b 771 0 692 30 730 0 l 1660 0 b 1823 162 1750 0 1823 73 l 1823 294 b 1742 435 1823 352 1792 406 z "},"C":{"ha":1892,"x_min":0,"x_max":0,"o":"m 1823 893 b 1743 972 1823 937 1787 972 l 232 972 b 69 810 142 972 69 900 l 69 162 b 232 0 69 73 142 0 l 1743 0 b 1823 80 1787 0 1823 36 b 1743 159 1823 123 1787 159 l 598 159 b 517 240 553 159 517 195 l 517 732 b 598 813 517 777 553 813 l 1743 813 b 1823 893 1787 813 1823 849 z "},"Ç":{"ha":1892,"x_min":0,"x_max":0,"o":"m 1823 893 b 1743 972 1823 937 1787 972 l 232 972 b 69 810 142 972 69 900 l 69 162 b 232 0 69 73 142 0 l 1743 0 b 1823 80 1787 0 1823 36 b 1743 159 1823 123 1787 159 l 598 159 b 517 240 553 159 517 195 l 517 732 b 598 813 517 777 553 813 l 1743 813 b 1823 893 1787 813 1823 849 z "},"D":{"ha":1892,"x_min":0,"x_max":0,"o":"m 684 210 b 894 0 684 94 778 0 l 1660 0 b 1823 162 1750 0 1823 73 l 1823 810 b 1660 972 1823 900 1750 972 l 151 972 b 69 891 106 972 69 936 l 69 81 b 151 0 69 36 106 0 l 436 0 b 517 81 481 0 517 36 l 517 732 b 598 813 517 777 553 813 l 1294 813 b 1375 732 1339 813 1375 777 l 1375 240 b 1294 159 1375 195 1339 159 l 1184 159 b 1103 232 1142 159 1108 190 b 1086 293 1101 251 1096 272 b 898 420 1052 367 979 419 b 684 210 780 422 684 327 z "},"E":{"ha":1892,"x_min":0,"x_max":0,"o":"m 232 0 l 1664 0 b 1823 159 1752 0 1823 71 l 1823 500 b 1660 662 1823 589 1750 662 l 1538 662 b 1375 500 1448 662 1375 589 l 1375 240 b 1294 159 1375 195 1339 159 l 598 159 b 517 240 553 159 517 195 l 517 422 b 598 503 517 467 553 503 l 693 503 b 774 430 735 503 769 472 b 791 369 776 411 781 390 b 979 242 825 295 897 243 b 1193 452 1097 240 1193 335 b 983 662 1193 568 1099 662 l 593 662 b 517 738 551 662 517 696 b 593 813 517 779 551 813 l 1743 813 b 1823 893 1787 813 1823 849 b 1743 972 1823 937 1787 972 l 232 972 b 69 810 142 972 69 900 l 69 162 b 232 0 69 73 142 0 z "},"È":{"ha":1892,"x_min":0,"x_max":0,"o":"m 232 0 l 1664 0 b 1823 159 1752 0 1823 71 l 1823 500 b 1660 662 1823 589 1750 662 l 1538 662 b 1375 500 1448 662 1375 589 l 1375 240 b 1294 159 1375 195 1339 159 l 598 159 b 517 240 553 159 517 195 l 517 422 b 598 503 517 467 553 503 l 693 503 b 774 430 735 503 769 472 b 791 369 776 411 781 390 b 979 242 825 295 897 243 b 1193 452 1097 240 1193 335 b 983 662 1193 568 1099 662 l 593 662 b 517 738 551 662 517 696 b 593 813 517 779 551 813 l 1743 813 b 1823 893 1787 813 1823 849 b 1743 972 1823 937 1787 972 l 232 972 b 69 810 142 972 69 900 l 69 162 b 232 0 69 73 142 0 z "},"É":{"ha":1892,"x_min":0,"x_max":0,"o":"m 232 0 l 1664 0 b 1823 159 1752 0 1823 71 l 1823 500 b 1660 662 1823 589 1750 662 l 1538 662 b 1375 500 1448 662 1375 589 l 1375 240 b 1294 159 1375 195 1339 159 l 598 159 b 517 240 553 159 517 195 l 517 422 b 598 503 517 467 553 503 l 693 503 b 774 430 735 503 769 472 b 791 369 776 411 781 390 b 979 242 825 295 897 243 b 1193 452 1097 240 1193 335 b 983 662 1193 568 1099 662 l 593 662 b 517 738 551 662 517 696 b 593 813 517 779 551 813 l 1743 813 b 1823 893 1787 813 1823 849 b 1743 972 1823 937 1787 972 l 232 972 b 69 810 142 972 69 900 l 69 162 b 232 0 69 73 142 0 z "},"Ê":{"ha":1892,"x_min":0,"x_max":0,"o":"m 232 0 l 1664 0 b 1823 159 1752 0 1823 71 l 1823 500 b 1660 662 1823 589 1750 662 l 1538 662 b 1375 500 1448 662 1375 589 l 1375 240 b 1294 159 1375 195 1339 159 l 598 159 b 517 240 553 159 517 195 l 517 422 b 598 503 517 467 553 503 l 693 503 b 774 430 735 503 769 472 b 791 369 776 411 781 390 b 979 242 825 295 897 243 b 1193 452 1097 240 1193 335 b 983 662 1193 568 1099 662 l 593 662 b 517 738 551 662 517 696 b 593 813 517 779 551 813 l 1743 813 b 1823 893 1787 813 1823 849 b 1743 972 1823 937 1787 972 l 232 972 b 69 810 142 972 69 900 l 69 162 b 232 0 69 73 142 0 z "},"Ë":{"ha":1892,"x_min":0,"x_max":0,"o":"m 232 0 l 1664 0 b 1823 159 1752 0 1823 71 l 1823 500 b 1660 662 1823 589 1750 662 l 1538 662 b 1375 500 1448 662 1375 589 l 1375 240 b 1294 159 1375 195 1339 159 l 598 159 b 517 240 553 159 517 195 l 517 422 b 598 503 517 467 553 503 l 693 503 b 774 430 735 503 769 472 b 791 369 776 411 781 390 b 979 242 825 295 897 243 b 1193 452 1097 240 1193 335 b 983 662 1193 568 1099 662 l 593 662 b 517 738 551 662 517 696 b 593 813 517 779 551 813 l 1743 813 b 1823 893 1787 813 1823 849 b 1743 972 1823 937 1787 972 l 232 972 b 69 810 142 972 69 900 l 69 162 b 232 0 69 73 142 0 z "},"F":{"ha":1892,"x_min":0,"x_max":0,"o":"m 995 566 l 598 566 b 517 647 553 566 517 602 l 517 732 b 598 813 517 777 553 813 l 1743 813 b 1823 893 1787 813 1823 849 b 1743 972 1823 937 1787 972 l 232 972 b 69 810 142 972 69 900 l 69 81 b 151 0 69 36 106 0 l 436 0 b 517 81 481 0 517 36 l 517 361 b 578 423 517 395 544 423 l 724 423 b 785 361 758 423 785 395 b 972 147 785 253 864 158 b 1205 356 1098 133 1205 232 b 995 566 1206 472 1111 566 z "},"G":{"ha":1892,"x_min":0,"x_max":0,"o":"m 1823 893 l 1823 895 b 1746 972 1823 938 1788 972 b 228 972 1479 972 593 972 b 69 813 141 972 69 901 l 69 159 b 228 0 69 71 141 0 l 1664 0 b 1823 159 1752 0 1823 71 l 1823 551 b 1664 710 1823 639 1752 710 l 946 710 b 746 566 855 710 772 653 b 941 290 703 423 806 293 b 1143 428 1030 288 1110 345 b 1152 459 1147 439 1150 449 b 1262 551 1163 512 1208 551 l 1264 551 b 1375 440 1325 551 1375 501 l 1375 301 b 1233 159 1375 223 1312 159 l 598 159 b 517 240 553 159 517 195 l 517 732 b 598 813 517 777 553 813 b 1743 813 833 813 1511 813 b 1823 893 1787 813 1823 849 z "},"H":{"ha":1875,"x_min":0,"x_max":0,"o":"m 1357 891 l 1357 647 b 1276 566 1357 602 1321 566 l 598 566 b 517 647 553 566 517 602 l 517 891 b 436 972 517 936 481 972 l 151 972 b 69 891 106 972 69 936 l 69 81 b 151 0 69 36 106 0 l 436 0 b 517 81 481 0 517 36 l 517 325 b 598 407 517 370 553 407 l 1276 407 b 1357 325 1321 407 1357 370 l 1357 81 b 1439 0 1357 36 1394 0 l 1724 0 b 1805 81 1769 0 1805 36 l 1805 891 b 1724 972 1805 936 1769 972 l 1439 972 b 1357 891 1394 972 1357 936 z "},"I":{"ha":586,"x_min":0,"x_max":0,"o":"m 517 81 l 517 891 b 436 972 517 936 481 972 l 151 972 b 69 891 106 972 69 936 l 69 81 b 151 0 69 36 106 0 l 436 0 b 517 81 481 0 517 36 z "},"Ì":{"ha":586,"x_min":0,"x_max":0,"o":"m 517 81 l 517 891 b 436 972 517 936 481 972 l 151 972 b 69 891 106 972 69 936 l 69 81 b 151 0 69 36 106 0 l 436 0 b 517 81 481 0 517 36 z "},"Í":{"ha":586,"x_min":0,"x_max":0,"o":"m 517 81 l 517 891 b 436 972 517 936 481 972 l 151 972 b 69 891 106 972 69 936 l 69 81 b 151 0 69 36 106 0 l 436 0 b 517 81 481 0 517 36 z "},"Î":{"ha":586,"x_min":0,"x_max":0,"o":"m 517 81 l 517 891 b 436 972 517 936 481 972 l 151 972 b 69 891 106 972 69 936 l 69 81 b 151 0 69 36 106 0 l 436 0 b 517 81 481 0 517 36 z "},"Ï":{"ha":586,"x_min":0,"x_max":0,"o":"m 517 81 l 517 891 b 436 972 517 936 481 972 l 151 972 b 69 891 106 972 69 936 l 69 81 b 151 0 69 36 106 0 l 436 0 b 517 81 481 0 517 36 z "},"J":{"ha":1892,"x_min":0,"x_max":0,"o":"m 1375 891 l 1375 240 b 1294 159 1375 195 1339 159 l 598 159 b 517 240 553 159 517 195 l 517 325 b 598 407 517 370 553 407 l 867 407 b 946 486 911 407 946 442 b 867 566 946 530 911 566 l 151 566 b 69 485 106 566 69 529 l 69 159 b 228 0 69 71 141 0 l 1664 0 b 1823 159 1752 0 1823 71 l 1823 891 b 1742 972 1823 936 1786 972 l 1456 972 b 1375 891 1412 972 1375 936 z "},"K":{"ha":1875,"x_min":0,"x_max":0,"o":"m 1694 521 l 1724 539 b 1805 679 1774 568 1805 621 l 1805 891 b 1724 972 1805 936 1769 972 l 1439 972 b 1357 891 1394 972 1357 936 l 1357 647 b 1276 566 1357 602 1321 566 l 598 566 b 517 647 553 566 517 602 l 517 891 b 436 972 517 936 481 972 l 151 972 b 69 891 106 972 69 936 l 69 81 b 151 0 69 36 106 0 l 436 0 b 517 81 481 0 517 36 l 517 325 b 598 407 517 370 553 407 l 1276 407 b 1357 325 1321 407 1357 370 l 1357 81 b 1439 0 1357 36 1394 0 l 1724 0 b 1805 81 1769 0 1805 36 l 1805 293 b 1724 434 1805 351 1774 405 l 1694 451 b 1694 521 1667 467 1667 506 z "},"L":{"ha":1892,"x_min":0,"x_max":0,"o":"m 1376 240 b 1294 159 1375 195 1339 159 l 598 159 b 517 240 553 159 517 195 l 517 891 b 436 972 517 936 481 972 l 151 972 b 69 891 106 972 69 936 l 69 159 b 228 0 69 71 141 0 l 1664 0 b 1823 159 1752 0 1823 71 l 1823 485 b 1742 566 1823 530 1787 566 l 1458 568 b 1376 486 1413 568 1376 531 z "},"M":{"ha":1935,"x_min":0,"x_max":0,"o":"m 1188 481 b 978 701 1193 602 1097 701 l 976 701 b 932 722 958 701 943 710 b 920 757 925 732 920 744 b 932 792 920 770 925 782 b 976 813 943 805 958 813 l 1336 813 b 1418 732 1381 813 1418 777 l 1418 82 b 1499 1 1418 37 1454 1 l 1784 0 b 1865 81 1829 0 1865 36 l 1865 810 b 1703 972 1865 900 1792 972 l 232 972 b 69 810 142 972 69 900 l 69 81 b 151 0 69 36 106 0 l 436 1 b 517 82 481 1 517 37 l 517 732 b 598 813 517 777 553 813 l 686 813 b 768 732 731 813 768 777 l 768 486 b 972 281 768 373 859 282 b 1188 481 1085 281 1182 368 z "},"N":{"ha":1875,"x_min":0,"x_max":0,"o":"m 1744 972 l 1418 972 b 1357 911 1385 972 1357 945 l 1357 419 b 1250 380 1357 362 1286 336 l 804 914 b 679 973 773 951 727 973 l 307 973 l 307 972 l 232 972 b 69 810 142 972 69 900 l 69 61 b 131 0 69 27 97 0 l 456 1 b 517 62 490 1 517 28 l 517 553 b 625 593 517 610 588 636 l 1071 58 b 1195 0 1102 21 1147 0 l 1567 0 l 1567 1 l 1642 0 b 1805 163 1732 0 1805 73 l 1805 911 b 1744 972 1805 945 1778 972 z "},"Ñ":{"ha":1875,"x_min":0,"x_max":0,"o":"m 1744 972 l 1418 972 b 1357 911 1385 972 1357 945 l 1357 419 b 1250 380 1357 362 1286 336 l 804 914 b 679 973 773 951 727 973 l 307 973 l 307 972 l 232 972 b 69 810 142 972 69 900 l 69 61 b 131 0 69 27 97 0 l 456 1 b 517 62 490 1 517 28 l 517 553 b 625 593 517 610 588 636 l 1071 58 b 1195 0 1102 21 1147 0 l 1567 0 l 1567 1 l 1642 0 b 1805 163 1732 0 1805 73 l 1805 911 b 1744 972 1805 945 1778 972 z "},"O":{"ha":1935,"x_min":0,"x_max":0,"o":"m 69 810 l 69 162 b 232 0 69 73 142 0 l 1703 0 b 1865 162 1792 0 1865 73 l 1865 810 b 1703 972 1865 900 1792 972 l 232 972 b 69 810 142 972 69 900 z m 578 813 l 1357 813 b 1418 752 1390 813 1418 786 l 1418 220 b 1357 159 1418 186 1390 159 l 578 159 b 517 220 544 159 517 186 l 517 752 b 578 813 517 786 544 813 z "},"Ò":{"ha":1935,"x_min":0,"x_max":0,"o":"m 69 810 l 69 162 b 232 0 69 73 142 0 l 1703 0 b 1865 162 1792 0 1865 73 l 1865 810 b 1703 972 1865 900 1792 972 l 232 972 b 69 810 142 972 69 900 z m 578 813 l 1357 813 b 1418 752 1390 813 1418 786 l 1418 220 b 1357 159 1418 186 1390 159 l 578 159 b 517 220 544 159 517 186 l 517 752 b 578 813 517 786 544 813 z "},"Ó":{"ha":1935,"x_min":0,"x_max":0,"o":"m 69 810 l 69 162 b 232 0 69 73 142 0 l 1703 0 b 1865 162 1792 0 1865 73 l 1865 810 b 1703 972 1865 900 1792 972 l 232 972 b 69 810 142 972 69 900 z m 578 813 l 1357 813 b 1418 752 1390 813 1418 786 l 1418 220 b 1357 159 1418 186 1390 159 l 578 159 b 517 220 544 159 517 186 l 517 752 b 578 813 517 786 544 813 z "},"Ô":{"ha":1935,"x_min":0,"x_max":0,"o":"m 69 810 l 69 162 b 232 0 69 73 142 0 l 1703 0 b 1865 162 1792 0 1865 73 l 1865 810 b 1703 972 1865 900 1792 972 l 232 972 b 69 810 142 972 69 900 z m 578 813 l 1357 813 b 1418 752 1390 813 1418 786 l 1418 220 b 1357 159 1418 186 1390 159 l 578 159 b 517 220 544 159 517 186 l 517 752 b 578 813 517 786 544 813 z "},"Õ":{"ha":1935,"x_min":0,"x_max":0,"o":"m 69 810 l 69 162 b 232 0 69 73 142 0 l 1703 0 b 1865 162 1792 0 1865 73 l 1865 810 b 1703 972 1865 900 1792 972 l 232 972 b 69 810 142 972 69 900 z m 578 813 l 1357 813 b 1418 752 1390 813 1418 786 l 1418 220 b 1357 159 1418 186 1390 159 l 578 159 b 517 220 544 159 517 186 l 517 752 b 578 813 517 786 544 813 z "},"Ö":{"ha":1935,"x_min":0,"x_max":0,"o":"m 69 810 l 69 162 b 232 0 69 73 142 0 l 1703 0 b 1865 162 1792 0 1865 73 l 1865 810 b 1703 972 1865 900 1792 972 l 232 972 b 69 810 142 972 69 900 z m 578 813 l 1357 813 b 1418 752 1390 813 1418 786 l 1418 220 b 1357 159 1418 186 1390 159 l 578 159 b 517 220 544 159 517 186 l 517 752 b 578 813 517 786 544 813 z "},"Ø":{"ha":1935,"x_min":0,"x_max":0,"o":"m 69 810 l 69 162 b 232 0 69 73 142 0 l 1703 0 b 1865 162 1792 0 1865 73 l 1865 810 b 1703 972 1865 900 1792 972 l 232 972 b 69 810 142 972 69 900 z m 578 813 l 1357 813 b 1418 752 1390 813 1418 786 l 1418 220 b 1357 159 1418 186 1390 159 l 578 159 b 517 220 544 159 517 186 l 517 752 b 578 813 517 786 544 813 z "},"P":{"ha":1892,"x_min":0,"x_max":0,"o":"m 1664 407 b 1823 566 1752 407 1823 478 l 1823 813 b 1664 972 1823 901 1752 972 l 228 972 b 69 813 141 972 69 901 l 69 61 b 130 0 69 27 97 0 l 456 0 b 517 61 490 0 517 27 l 517 346 b 578 407 517 379 544 407 z m 517 627 l 517 752 b 578 813 517 786 544 813 l 1314 813 b 1375 752 1348 813 1375 786 l 1375 627 b 1314 566 1375 593 1348 566 l 578 566 b 517 627 544 566 517 593 z "},"Q":{"ha":1935,"x_min":0,"x_max":0,"o":"m 69 810 l 69 162 b 232 0 69 73 142 0 l 1703 0 b 1865 162 1792 0 1865 73 l 1865 810 b 1703 972 1865 900 1792 972 l 232 972 b 69 810 142 972 69 900 z m 517 240 l 517 732 b 598 813 517 777 553 813 l 1336 813 b 1418 732 1381 813 1418 777 l 1418 503 b 1336 422 1418 458 1381 422 l 1263 422 b 1182 494 1221 422 1187 453 b 1170 545 1180 511 1176 528 b 968 683 1140 620 1049 685 b 763 466 852 680 759 583 b 980 263 767 351 865 263 l 1366 263 b 1418 211 1394 263 1418 240 b 1366 159 1418 182 1394 159 l 598 159 b 517 240 553 159 517 195 z "},"R":{"ha":1892,"x_min":0,"x_max":0,"o":"m 228 972 b 69 813 141 972 69 901 l 69 81 b 151 0 69 36 106 0 l 436 0 b 517 81 481 0 517 36 l 517 732 b 598 813 517 777 553 813 l 1294 813 b 1375 732 1339 813 1375 777 l 1375 647 b 1294 566 1375 602 1339 566 l 1090 566 b 1027 434 1022 566 984 487 l 1351 30 b 1414 0 1366 11 1390 0 l 1738 0 b 1770 66 1772 0 1791 39 l 1549 341 b 1581 407 1528 367 1547 407 l 1664 407 b 1823 566 1752 407 1823 478 l 1823 813 b 1664 972 1823 901 1752 972 z "},"S":{"ha":1892,"x_min":0,"x_max":0,"o":"m 1375 325 l 1375 240 b 1294 159 1375 195 1339 159 l 149 159 b 69 80 105 159 69 123 b 149 0 69 36 105 0 l 1664 0 b 1823 159 1752 0 1823 71 l 1823 407 b 1664 566 1823 494 1752 566 l 598 566 b 517 647 553 566 517 602 l 517 732 b 598 813 517 777 553 813 l 1743 813 b 1823 893 1787 813 1823 849 b 1743 972 1823 937 1787 972 l 228 972 b 69 813 141 972 69 901 l 69 566 b 228 407 69 478 141 407 l 1294 407 b 1375 325 1339 407 1375 370 z "},"T":{"ha":1893,"x_min":0,"x_max":0,"o":"m 1823 892 b 1742 972 1823 936 1787 972 l 151 972 b 69 891 106 972 69 936 l 69 609 b 151 527 69 564 106 527 l 436 527 b 517 609 481 527 517 564 l 517 732 b 598 813 517 777 553 813 l 641 813 b 722 732 686 813 722 777 l 722 81 b 804 0 722 36 759 0 l 1089 0 b 1170 81 1134 0 1170 36 l 1170 732 b 1251 813 1170 777 1206 813 l 1296 813 b 1377 732 1341 813 1377 777 l 1377 609 b 1458 527 1377 564 1413 527 l 1743 527 b 1824 609 1788 527 1824 564 z "},"U":{"ha":1935,"x_min":0,"x_max":0,"o":"m 517 240 l 517 891 b 436 972 517 935 481 972 l 151 972 b 69 891 106 972 69 936 l 69 159 b 228 0 69 71 141 0 l 1706 0 b 1865 159 1794 0 1865 71 l 1865 891 b 1784 972 1865 936 1829 972 l 1499 972 b 1418 891 1454 972 1418 935 l 1418 240 b 1336 159 1418 195 1381 159 l 598 159 b 517 240 553 159 517 195 z "},"Ù":{"ha":1935,"x_min":0,"x_max":0,"o":"m 517 240 l 517 891 b 436 972 517 935 481 972 l 151 972 b 69 891 106 972 69 936 l 69 159 b 228 0 69 71 141 0 l 1706 0 b 1865 159 1794 0 1865 71 l 1865 891 b 1784 972 1865 936 1829 972 l 1499 972 b 1418 891 1454 972 1418 935 l 1418 240 b 1336 159 1418 195 1381 159 l 598 159 b 517 240 553 159 517 195 z "},"Ú":{"ha":1935,"x_min":0,"x_max":0,"o":"m 517 240 l 517 891 b 436 972 517 935 481 972 l 151 972 b 69 891 106 972 69 936 l 69 159 b 228 0 69 71 141 0 l 1706 0 b 1865 159 1794 0 1865 71 l 1865 891 b 1784 972 1865 936 1829 972 l 1499 972 b 1418 891 1454 972 1418 935 l 1418 240 b 1336 159 1418 195 1381 159 l 598 159 b 517 240 553 159 517 195 z "},"Û":{"ha":1935,"x_min":0,"x_max":0,"o":"m 517 240 l 517 891 b 436 972 517 935 481 972 l 151 972 b 69 891 106 972 69 936 l 69 159 b 228 0 69 71 141 0 l 1706 0 b 1865 159 1794 0 1865 71 l 1865 891 b 1784 972 1865 936 1829 972 l 1499 972 b 1418 891 1454 972 1418 935 l 1418 240 b 1336 159 1418 195 1381 159 l 598 159 b 517 240 553 159 517 195 z "},"Ü":{"ha":1935,"x_min":0,"x_max":0,"o":"m 517 240 l 517 891 b 436 972 517 935 481 972 l 151 972 b 69 891 106 972 69 936 l 69 159 b 228 0 69 71 141 0 l 1706 0 b 1865 159 1794 0 1865 71 l 1865 891 b 1784 972 1865 936 1829 972 l 1499 972 b 1418 891 1454 972 1418 935 l 1418 240 b 1336 159 1418 195 1381 159 l 598 159 b 517 240 553 159 517 195 z "},"V":{"ha":1935,"x_min":0,"x_max":0,"o":"m 1784 972 l 967 972 b 757 762 851 972 757 878 b 967 552 757 646 851 552 b 1177 762 1083 552 1177 646 b 1171 813 1177 780 1175 797 l 1336 813 b 1418 732 1381 813 1418 777 l 1418 431 b 1146 159 1418 281 1296 159 l 598 159 b 517 240 553 159 517 195 l 517 891 b 436 972 517 935 481 972 l 151 972 b 69 891 106 972 69 936 l 69 159 b 228 0 69 71 141 0 l 1516 0 b 1865 349 1709 0 1865 156 l 1865 891 b 1784 972 1865 936 1829 972 z "},"W":{"ha":1935,"x_min":0,"x_max":0,"o":"m 1706 0 b 1865 159 1794 0 1865 71 l 1865 891 b 1784 972 1865 936 1829 972 l 1499 972 b 1418 891 1454 972 1418 935 l 1418 240 b 1336 159 1418 195 1381 159 l 1272 159 b 1191 240 1227 159 1191 195 l 1191 564 b 1110 645 1191 609 1155 645 l 825 645 b 743 563 780 644 743 608 l 743 240 b 662 159 743 195 707 159 l 598 159 b 517 240 553 159 517 195 l 517 891 b 436 972 517 935 481 972 l 151 972 b 69 891 106 972 69 936 l 69 159 b 228 0 69 71 141 0 z "},"X":{"ha":1875,"x_min":0,"x_max":0,"o":"m 1805 632 l 1805 891 b 1724 972 1805 936 1769 972 l 1439 972 b 1357 891 1394 972 1357 936 l 1357 647 b 1276 566 1357 602 1321 566 l 598 566 b 517 647 553 566 517 602 l 517 891 b 436 972 517 936 481 972 l 151 972 b 69 891 106 972 69 936 l 69 632 b 110 562 69 603 85 577 l 181 521 b 181 451 208 506 208 467 l 110 410 b 69 340 85 396 69 369 l 69 81 b 151 0 69 36 106 0 l 436 0 b 517 81 481 0 517 36 l 517 325 b 598 407 517 370 553 407 l 1276 407 b 1357 325 1321 407 1357 370 l 1357 81 b 1439 0 1357 36 1394 0 l 1724 0 b 1805 81 1769 0 1805 36 l 1805 340 b 1764 410 1805 369 1790 396 l 1694 451 b 1694 521 1667 467 1667 506 l 1764 562 b 1805 632 1789 577 1805 603 z "},"Y":{"ha":1892,"x_min":0,"x_max":0,"o":"m 1456 972 b 1375 891 1412 972 1375 936 l 1375 647 b 1294 566 1375 602 1339 566 l 598 566 b 517 647 553 566 517 602 l 517 891 b 436 972 517 936 481 972 l 151 972 b 69 891 106 972 69 936 l 69 488 b 151 407 69 443 106 407 l 1294 407 b 1375 325 1339 407 1375 370 l 1375 240 b 1294 159 1375 195 1339 159 l 149 159 b 69 80 105 159 69 123 b 149 0 69 36 105 0 l 1664 0 b 1823 159 1752 0 1823 71 l 1823 891 b 1742 972 1823 936 1786 972 z "},"Ý":{"ha":1892,"x_min":0,"x_max":0,"o":"m 1456 972 b 1375 891 1412 972 1375 936 l 1375 647 b 1294 566 1375 602 1339 566 l 598 566 b 517 647 553 566 517 602 l 517 891 b 436 972 517 936 481 972 l 151 972 b 69 891 106 972 69 936 l 69 488 b 151 407 69 443 106 407 l 1294 407 b 1375 325 1339 407 1375 370 l 1375 240 b 1294 159 1375 195 1339 159 l 149 159 b 69 80 105 159 69 123 b 149 0 69 36 105 0 l 1664 0 b 1823 159 1752 0 1823 71 l 1823 891 b 1742 972 1823 936 1786 972 z "},"Ÿ":{"ha":1892,"x_min":0,"x_max":0,"o":"m 1456 972 b 1375 891 1412 972 1375 936 l 1375 647 b 1294 566 1375 602 1339 566 l 598 566 b 517 647 553 566 517 602 l 517 891 b 436 972 517 936 481 972 l 151 972 b 69 891 106 972 69 936 l 69 488 b 151 407 69 443 106 407 l 1294 407 b 1375 325 1339 407 1375 370 l 1375 240 b 1294 159 1375 195 1339 159 l 149 159 b 69 80 105 159 69 123 b 149 0 69 36 105 0 l 1664 0 b 1823 159 1752 0 1823 71 l 1823 891 b 1742 972 1823 936 1786 972 z "},"Z":{"ha":1892,"x_min":0,"x_max":0,"o":"m 1664 407 b 1823 566 1752 407 1823 478 l 1823 813 b 1664 972 1823 901 1752 972 l 149 972 b 69 893 105 972 69 937 b 149 813 69 849 105 813 l 1294 813 b 1375 732 1339 813 1375 777 l 1375 647 b 1294 566 1375 602 1339 566 l 228 566 b 69 407 141 566 69 494 l 69 159 b 228 0 69 71 141 0 l 1743 0 b 1823 80 1787 0 1823 36 b 1743 159 1823 123 1787 159 l 598 159 b 517 240 553 159 517 195 l 517 325 b 598 407 517 370 553 407 z "},"[":{"ha":1435,"x_min":0,"x_max":0,"o":"m 1198 623 b 1257 688 1231 627 1257 655 b 1198 752 1257 721 1231 749 b 824 849 984 775 879 795 b 728 1223 770 903 751 1008 b 663 1281 724 1256 696 1281 b 599 1223 630 1281 602 1256 b 502 849 575 1008 556 903 b 127 752 447 795 342 775 b 69 688 94 749 69 721 b 127 623 69 655 94 627 b 502 526 342 600 447 581 b 598 152 556 472 575 367 b 663 94 602 119 630 94 b 728 152 696 94 724 119 b 824 526 751 367 770 472 b 1198 623 879 581 984 600 z m 1338 303 b 1166 347 1239 313 1191 322 b 1122 520 1141 372 1132 421 b 1092 546 1120 535 1107 546 b 1062 520 1077 546 1064 535 b 1018 347 1051 421 1043 372 b 845 303 993 322 944 313 b 819 273 830 301 819 288 b 845 243 819 258 830 245 b 1018 199 944 233 993 224 b 1062 27 1043 174 1051 126 b 1092 0 1064 12 1077 0 b 1122 27 1107 0 1120 12 b 1166 199 1132 126 1141 174 b 1338 243 1191 224 1239 233 b 1365 273 1353 245 1365 258 b 1338 303 1365 288 1353 301 z "},"\\":{"ha":1435,"x_min":0,"x_max":0,"o":"m 1198 623 b 1257 688 1231 627 1257 655 b 1198 752 1257 721 1231 749 b 824 849 984 775 879 795 b 728 1223 770 903 751 1008 b 663 1281 724 1256 696 1281 b 599 1223 630 1281 602 1256 b 502 849 575 1008 556 903 b 127 752 447 795 342 775 b 69 688 94 749 69 721 b 127 623 69 655 94 627 b 502 526 342 600 447 581 b 598 152 556 472 575 367 b 663 94 602 119 630 94 b 728 152 696 94 724 119 b 824 526 751 367 770 472 b 1198 623 879 581 984 600 z m 1338 303 b 1166 347 1239 313 1191 322 b 1122 520 1141 372 1132 421 b 1092 546 1120 535 1107 546 b 1062 520 1077 546 1064 535 b 1018 347 1051 421 1043 372 b 845 303 993 322 944 313 b 819 273 830 301 819 288 b 845 243 819 258 830 245 b 1018 199 944 233 993 224 b 1062 27 1043 174 1051 126 b 1092 0 1064 12 1077 0 b 1122 27 1107 0 1120 12 b 1166 199 1132 126 1141 174 b 1338 243 1191 224 1239 233 b 1365 273 1353 245 1365 258 b 1338 303 1365 288 1353 301 z "},"]":{"ha":1435,"x_min":0,"x_max":0,"o":"m 1198 623 b 1257 688 1231 627 1257 655 b 1198 752 1257 721 1231 749 b 824 849 984 775 879 795 b 728 1223 770 903 751 1008 b 663 1281 724 1256 696 1281 b 599 1223 630 1281 602 1256 b 502 849 575 1008 556 903 b 127 752 447 795 342 775 b 69 688 94 749 69 721 b 127 623 69 655 94 627 b 502 526 342 600 447 581 b 598 152 556 472 575 367 b 663 94 602 119 630 94 b 728 152 696 94 724 119 b 824 526 751 367 770 472 b 1198 623 879 581 984 600 z m 1338 303 b 1166 347 1239 313 1191 322 b 1122 520 1141 372 1132 421 b 1092 546 1120 535 1107 546 b 1062 520 1077 546 1064 535 b 1018 347 1051 421 1043 372 b 845 303 993 322 944 313 b 819 273 830 301 819 288 b 845 243 819 258 830 245 b 1018 199 944 233 993 224 b 1062 27 1043 174 1051 126 b 1092 0 1064 12 1077 0 b 1122 27 1107 0 1120 12 b 1166 199 1132 126 1141 174 b 1338 243 1191 224 1239 233 b 1365 273 1353 245 1365 258 b 1338 303 1365 288 1353 301 z "},"^":{"ha":1031,"x_min":0,"x_max":0,"o":"m 486 737 l 374 934 b 312 909 354 969 302 947 l 372 690 b 331 649 379 665 356 642 l 112 709 b 87 647 74 719 52 667 l 284 535 b 284 476 307 522 307 489 l 87 364 b 112 302 52 345 74 292 l 331 363 b 372 321 356 370 379 347 l 312 103 b 374 77 302 64 354 42 l 486 274 b 545 274 499 297 532 297 l 657 77 b 719 103 676 42 729 64 l 658 321 b 700 363 651 347 675 370 l 918 302 b 944 364 957 292 979 345 l 747 476 b 747 535 724 489 724 522 l 944 647 b 918 709 979 667 957 719 l 700 649 b 658 690 675 642 651 665 l 719 909 b 657 934 729 947 676 969 l 545 737 b 486 737 532 714 499 714 z "},"_":{"ha":954,"x_min":0,"x_max":0,"o":"m 633 765 l 879 964 b 862 993 894 977 880 1000 l 566 880 b 544 893 556 876 545 882 l 494 1206 b 461 1206 491 1225 464 1225 l 411 893 b 388 880 409 882 398 876 l 92 993 b 76 964 75 1000 61 977 l 322 765 b 322 739 330 758 330 745 l 76 539 b 92 510 61 527 75 504 l 388 624 b 411 611 398 627 409 621 l 461 -137 b 494 -137 464 -156 491 -156 l 544 611 b 566 624 545 621 556 627 l 862 510 b 879 539 880 504 894 527 l 633 739 b 633 765 625 745 625 758 z "},"a":{"ha":1935,"x_min":0,"x_max":0,"o":"m 69 810 l 69 81 b 151 0 69 36 106 0 l 436 1 b 517 82 481 1 517 37 l 517 241 b 598 322 517 285 553 322 l 1000 322 b 1083 405 1046 322 1083 359 b 1000 488 1083 451 1046 488 l 598 486 b 517 568 553 486 517 523 l 517 732 b 598 813 517 777 553 813 l 1336 813 b 1418 732 1381 813 1418 777 l 1418 82 b 1499 1 1418 37 1454 1 l 1784 0 b 1865 81 1829 0 1865 36 l 1865 810 b 1703 972 1865 900 1792 972 l 232 972 b 69 810 142 972 69 900 z "},"à":{"ha":1935,"x_min":0,"x_max":0,"o":"m 69 810 l 69 81 b 151 0 69 36 106 0 l 436 1 b 517 82 481 1 517 37 l 517 241 b 598 322 517 285 553 322 l 1000 322 b 1083 405 1046 322 1083 359 b 1000 488 1083 451 1046 488 l 598 486 b 517 568 553 486 517 523 l 517 732 b 598 813 517 777 553 813 l 1336 813 b 1418 732 1381 813 1418 777 l 1418 82 b 1499 1 1418 37 1454 1 l 1784 0 b 1865 81 1829 0 1865 36 l 1865 810 b 1703 972 1865 900 1792 972 l 232 972 b 69 810 142 972 69 900 z "},"á":{"ha":1935,"x_min":0,"x_max":0,"o":"m 69 810 l 69 81 b 151 0 69 36 106 0 l 436 1 b 517 82 481 1 517 37 l 517 241 b 598 322 517 285 553 322 l 1000 322 b 1083 405 1046 322 1083 359 b 1000 488 1083 451 1046 488 l 598 486 b 517 568 553 486 517 523 l 517 732 b 598 813 517 777 553 813 l 1336 813 b 1418 732 1381 813 1418 777 l 1418 82 b 1499 1 1418 37 1454 1 l 1784 0 b 1865 81 1829 0 1865 36 l 1865 810 b 1703 972 1865 900 1792 972 l 232 972 b 69 810 142 972 69 900 z "},"â":{"ha":1935,"x_min":0,"x_max":0,"o":"m 69 810 l 69 81 b 151 0 69 36 106 0 l 436 1 b 517 82 481 1 517 37 l 517 241 b 598 322 517 285 553 322 l 1000 322 b 1083 405 1046 322 1083 359 b 1000 488 1083 451 1046 488 l 598 486 b 517 568 553 486 517 523 l 517 732 b 598 813 517 777 553 813 l 1336 813 b 1418 732 1381 813 1418 777 l 1418 82 b 1499 1 1418 37 1454 1 l 1784 0 b 1865 81 1829 0 1865 36 l 1865 810 b 1703 972 1865 900 1792 972 l 232 972 b 69 810 142 972 69 900 z "},"ã":{"ha":1935,"x_min":0,"x_max":0,"o":"m 69 810 l 69 81 b 151 0 69 36 106 0 l 436 1 b 517 82 481 1 517 37 l 517 241 b 598 322 517 285 553 322 l 1000 322 b 1083 405 1046 322 1083 359 b 1000 488 1083 451 1046 488 l 598 486 b 517 568 553 486 517 523 l 517 732 b 598 813 517 777 553 813 l 1336 813 b 1418 732 1381 813 1418 777 l 1418 82 b 1499 1 1418 37 1454 1 l 1784 0 b 1865 81 1829 0 1865 36 l 1865 810 b 1703 972 1865 900 1792 972 l 232 972 b 69 810 142 972 69 900 z "},"ä":{"ha":1935,"x_min":0,"x_max":0,"o":"m 69 810 l 69 81 b 151 0 69 36 106 0 l 436 1 b 517 82 481 1 517 37 l 517 241 b 598 322 517 285 553 322 l 1000 322 b 1083 405 1046 322 1083 359 b 1000 488 1083 451 1046 488 l 598 486 b 517 568 553 486 517 523 l 517 732 b 598 813 517 777 553 813 l 1336 813 b 1418 732 1381 813 1418 777 l 1418 82 b 1499 1 1418 37 1454 1 l 1784 0 b 1865 81 1829 0 1865 36 l 1865 810 b 1703 972 1865 900 1792 972 l 232 972 b 69 810 142 972 69 900 z "},"å":{"ha":1935,"x_min":0,"x_max":0,"o":"m 69 810 l 69 81 b 151 0 69 36 106 0 l 436 1 b 517 82 481 1 517 37 l 517 241 b 598 322 517 285 553 322 l 1000 322 b 1083 405 1046 322 1083 359 b 1000 488 1083 451 1046 488 l 598 486 b 517 568 553 486 517 523 l 517 732 b 598 813 517 777 553 813 l 1336 813 b 1418 732 1381 813 1418 777 l 1418 82 b 1499 1 1418 37 1454 1 l 1784 0 b 1865 81 1829 0 1865 36 l 1865 810 b 1703 972 1865 900 1792 972 l 232 972 b 69 810 142 972 69 900 z "},"b":{"ha":1892,"x_min":0,"x_max":0,"o":"m 1742 435 l 1714 451 b 1714 521 1687 467 1687 506 l 1742 538 b 1823 678 1792 567 1823 620 l 1823 810 b 1660 972 1823 900 1750 972 l 232 972 b 69 810 142 972 69 900 l 69 81 b 151 0 69 36 106 0 l 436 0 b 517 81 481 0 517 36 l 517 732 b 598 813 517 777 553 813 l 1252 813 b 1375 690 1320 813 1375 758 b 1252 566 1375 621 1320 566 l 766 566 b 688 479 720 566 683 526 b 771 407 692 437 730 407 l 1252 407 b 1375 283 1320 407 1375 351 b 1252 159 1375 214 1320 159 l 766 159 b 688 72 720 159 683 119 b 771 0 692 30 730 0 l 1660 0 b 1823 162 1750 0 1823 73 l 1823 294 b 1742 435 1823 352 1792 406 z "},"c":{"ha":1892,"x_min":0,"x_max":0,"o":"m 1823 893 b 1743 972 1823 937 1787 972 l 232 972 b 69 810 142 972 69 900 l 69 162 b 232 0 69 73 142 0 l 1743 0 b 1823 80 1787 0 1823 36 b 1743 159 1823 123 1787 159 l 598 159 b 517 240 553 159 517 195 l 517 732 b 598 813 517 777 553 813 l 1743 813 b 1823 893 1787 813 1823 849 z "},"ç":{"ha":1892,"x_min":0,"x_max":0,"o":"m 1823 893 b 1743 972 1823 937 1787 972 l 232 972 b 69 810 142 972 69 900 l 69 162 b 232 0 69 73 142 0 l 1743 0 b 1823 80 1787 0 1823 36 b 1743 159 1823 123 1787 159 l 598 159 b 517 240 553 159 517 195 l 517 732 b 598 813 517 777 553 813 l 1743 813 b 1823 893 1787 813 1823 849 z "},"d":{"ha":1892,"x_min":0,"x_max":0,"o":"m 1660 972 l 151 972 b 69 891 106 972 69 936 l 69 81 b 151 0 69 36 106 0 l 436 0 b 517 81 481 0 517 36 l 517 732 b 598 813 517 777 553 813 l 1294 813 b 1375 732 1339 813 1375 777 l 1375 240 b 1294 159 1375 195 1339 159 l 764 159 b 684 80 720 159 684 123 b 764 0 684 36 720 0 l 1660 0 b 1823 162 1750 0 1823 73 l 1823 810 b 1660 972 1823 900 1750 972 z "},"e":{"ha":1892,"x_min":0,"x_max":0,"o":"m 1743 972 l 232 972 b 69 810 142 972 69 900 l 69 162 b 232 0 69 73 142 0 l 1743 0 b 1823 80 1787 0 1823 36 b 1743 159 1823 123 1787 159 l 598 159 b 517 240 553 159 517 195 l 517 325 b 598 407 517 370 553 407 l 1126 407 b 1206 486 1170 407 1206 442 b 1126 566 1206 530 1170 566 l 598 566 b 517 647 553 566 517 602 l 517 732 b 598 813 517 777 553 813 l 1743 813 b 1823 893 1787 813 1823 849 b 1743 972 1823 937 1787 972 z "},"è":{"ha":1892,"x_min":0,"x_max":0,"o":"m 1743 972 l 232 972 b 69 810 142 972 69 900 l 69 162 b 232 0 69 73 142 0 l 1743 0 b 1823 80 1787 0 1823 36 b 1743 159 1823 123 1787 159 l 598 159 b 517 240 553 159 517 195 l 517 325 b 598 407 517 370 553 407 l 1126 407 b 1206 486 1170 407 1206 442 b 1126 566 1206 530 1170 566 l 598 566 b 517 647 553 566 517 602 l 517 732 b 598 813 517 777 553 813 l 1743 813 b 1823 893 1787 813 1823 849 b 1743 972 1823 937 1787 972 z "},"é":{"ha":1892,"x_min":0,"x_max":0,"o":"m 1743 972 l 232 972 b 69 810 142 972 69 900 l 69 162 b 232 0 69 73 142 0 l 1743 0 b 1823 80 1787 0 1823 36 b 1743 159 1823 123 1787 159 l 598 159 b 517 240 553 159 517 195 l 517 325 b 598 407 517 370 553 407 l 1126 407 b 1206 486 1170 407 1206 442 b 1126 566 1206 530 1170 566 l 598 566 b 517 647 553 566 517 602 l 517 732 b 598 813 517 777 553 813 l 1743 813 b 1823 893 1787 813 1823 849 b 1743 972 1823 937 1787 972 z "},"ê":{"ha":1892,"x_min":0,"x_max":0,"o":"m 1743 972 l 232 972 b 69 810 142 972 69 900 l 69 162 b 232 0 69 73 142 0 l 1743 0 b 1823 80 1787 0 1823 36 b 1743 159 1823 123 1787 159 l 598 159 b 517 240 553 159 517 195 l 517 325 b 598 407 517 370 553 407 l 1126 407 b 1206 486 1170 407 1206 442 b 1126 566 1206 530 1170 566 l 598 566 b 517 647 553 566 517 602 l 517 732 b 598 813 517 777 553 813 l 1743 813 b 1823 893 1787 813 1823 849 b 1743 972 1823 937 1787 972 z "},"ë":{"ha":1892,"x_min":0,"x_max":0,"o":"m 1743 972 l 232 972 b 69 810 142 972 69 900 l 69 162 b 232 0 69 73 142 0 l 1743 0 b 1823 80 1787 0 1823 36 b 1743 159 1823 123 1787 159 l 598 159 b 517 240 553 159 517 195 l 517 325 b 598 407 517 370 553 407 l 1126 407 b 1206 486 1170 407 1206 442 b 1126 566 1206 530 1170 566 l 598 566 b 517 647 553 566 517 602 l 517 732 b 598 813 517 777 553 813 l 1743 813 b 1823 893 1787 813 1823 849 b 1743 972 1823 937 1787 972 z "},"f":{"ha":1892,"x_min":0,"x_max":0,"o":"m 151 0 l 436 0 b 517 81 481 0 517 36 l 517 325 b 598 407 517 370 553 407 l 1126 407 b 1206 486 1170 407 1206 442 b 1126 566 1206 530 1170 566 l 598 566 b 517 647 553 566 517 602 l 517 732 b 598 813 517 777 553 813 l 1743 813 b 1823 893 1787 813 1823 849 b 1743 972 1823 937 1787 972 l 232 972 b 69 810 142 972 69 900 l 69 81 b 151 0 69 36 106 0 z "},"g":{"ha":1892,"x_min":0,"x_max":0,"o":"m 1743 972 l 232 972 b 69 810 142 972 69 900 l 69 162 b 232 0 69 73 142 0 l 1742 0 b 1823 81 1786 0 1823 36 l 1823 629 b 1742 710 1823 674 1786 710 l 1026 710 b 946 631 982 710 946 675 b 1026 551 946 587 982 551 l 1294 551 b 1375 470 1339 551 1375 515 l 1375 240 b 1294 159 1375 195 1339 159 l 598 159 b 517 240 553 159 517 195 l 517 732 b 598 813 517 777 553 813 l 1743 813 b 1823 893 1787 813 1823 849 b 1743 972 1823 937 1787 972 z "},"h":{"ha":1875,"x_min":0,"x_max":0,"o":"m 1357 891 l 1357 647 b 1276 566 1357 602 1321 566 l 598 566 b 517 647 553 566 517 602 l 517 891 b 436 972 517 936 481 972 l 151 972 b 69 891 106 972 69 936 l 69 81 b 151 0 69 36 106 0 l 436 0 b 517 81 481 0 517 36 l 517 325 b 598 407 517 370 553 407 l 1276 407 b 1357 325 1321 407 1357 370 l 1357 81 b 1439 0 1357 36 1394 0 l 1724 0 b 1805 81 1769 0 1805 36 l 1805 891 b 1724 972 1805 936 1769 972 l 1439 972 b 1357 891 1394 972 1357 936 z "},"i":{"ha":586,"x_min":0,"x_max":0,"o":"m 517 81 l 517 891 b 436 972 517 936 481 972 l 151 972 b 69 891 106 972 69 936 l 69 81 b 151 0 69 36 106 0 l 436 0 b 517 81 481 0 517 36 z "},"ì":{"ha":586,"x_min":0,"x_max":0,"o":"m 517 81 l 517 891 b 436 972 517 936 481 972 l 151 972 b 69 891 106 972 69 936 l 69 81 b 151 0 69 36 106 0 l 436 0 b 517 81 481 0 517 36 z "},"í":{"ha":586,"x_min":0,"x_max":0,"o":"m 517 81 l 517 891 b 436 972 517 936 481 972 l 151 972 b 69 891 106 972 69 936 l 69 81 b 151 0 69 36 106 0 l 436 0 b 517 81 481 0 517 36 z "},"î":{"ha":586,"x_min":0,"x_max":0,"o":"m 517 81 l 517 891 b 436 972 517 936 481 972 l 151 972 b 69 891 106 972 69 936 l 69 81 b 151 0 69 36 106 0 l 436 0 b 517 81 481 0 517 36 z "},"ï":{"ha":586,"x_min":0,"x_max":0,"o":"m 517 81 l 517 891 b 436 972 517 936 481 972 l 151 972 b 69 891 106 972 69 936 l 69 81 b 151 0 69 36 106 0 l 436 0 b 517 81 481 0 517 36 z "},"j":{"ha":1892,"x_min":0,"x_max":0,"o":"m 1375 891 l 1375 240 b 1294 159 1375 195 1339 159 l 598 159 b 517 240 553 159 517 195 l 517 325 b 598 407 517 370 553 407 l 867 407 b 946 486 911 407 946 442 b 867 566 946 530 911 566 l 151 566 b 69 485 106 566 69 529 l 69 159 b 228 0 69 71 141 0 l 1664 0 b 1823 159 1752 0 1823 71 l 1823 891 b 1742 972 1823 936 1786 972 l 1456 972 b 1375 891 1412 972 1375 936 z "},"k":{"ha":1875,"x_min":0,"x_max":0,"o":"m 1694 521 l 1724 539 b 1805 679 1774 568 1805 621 l 1805 891 b 1724 972 1805 936 1769 972 l 1439 972 b 1357 891 1394 972 1357 936 l 1357 647 b 1276 566 1357 602 1321 566 l 598 566 b 517 647 553 566 517 602 l 517 891 b 436 972 517 936 481 972 l 151 972 b 69 891 106 972 69 936 l 69 81 b 151 0 69 36 106 0 l 436 0 b 517 81 481 0 517 36 l 517 325 b 598 407 517 370 553 407 l 1276 407 b 1357 325 1321 407 1357 370 l 1357 81 b 1439 0 1357 36 1394 0 l 1724 0 b 1805 81 1769 0 1805 36 l 1805 293 b 1724 434 1805 351 1774 405 l 1694 451 b 1694 521 1667 467 1667 506 z "},"l":{"ha":1892,"x_min":0,"x_max":0,"o":"m 1376 240 b 1294 159 1375 195 1339 159 l 598 159 b 517 240 553 159 517 195 l 517 891 b 436 972 517 936 481 972 l 151 972 b 69 891 106 972 69 936 l 69 159 b 228 0 69 71 141 0 l 1664 0 b 1823 159 1752 0 1823 71 l 1823 485 b 1742 566 1823 530 1787 566 l 1458 568 b 1376 486 1413 568 1376 531 z "},"m":{"ha":1935,"x_min":0,"x_max":0,"o":"m 232 972 b 69 810 142 972 69 900 l 69 81 b 151 0 69 36 106 0 l 436 1 b 517 82 481 1 517 37 l 517 732 b 598 813 517 777 553 813 l 662 813 b 743 732 707 813 743 777 l 743 408 b 825 327 743 363 780 327 l 1110 328 b 1191 409 1155 328 1191 364 l 1191 732 b 1272 813 1191 777 1227 813 l 1336 813 b 1418 732 1381 813 1418 777 l 1418 82 b 1499 1 1418 37 1454 1 l 1784 0 b 1865 81 1829 0 1865 36 l 1865 810 b 1703 972 1865 900 1792 972 z "},"n":{"ha":1875,"x_min":0,"x_max":0,"o":"m 1744 972 l 1418 972 b 1357 911 1385 972 1357 945 l 1357 419 b 1250 380 1357 362 1286 336 l 804 914 b 679 973 773 951 727 973 l 307 973 l 307 972 l 232 972 b 69 810 142 972 69 900 l 69 61 b 131 0 69 27 97 0 l 456 1 b 517 62 490 1 517 28 l 517 553 b 625 593 517 610 588 636 l 1071 58 b 1195 0 1102 21 1147 0 l 1567 0 l 1567 1 l 1642 0 b 1805 163 1732 0 1805 73 l 1805 911 b 1744 972 1805 945 1778 972 z "},"ñ":{"ha":1875,"x_min":0,"x_max":0,"o":"m 1744 972 l 1418 972 b 1357 911 1385 972 1357 945 l 1357 419 b 1250 380 1357 362 1286 336 l 804 914 b 679 973 773 951 727 973 l 307 973 l 307 972 l 232 972 b 69 810 142 972 69 900 l 69 61 b 131 0 69 27 97 0 l 456 1 b 517 62 490 1 517 28 l 517 553 b 625 593 517 610 588 636 l 1071 58 b 1195 0 1102 21 1147 0 l 1567 0 l 1567 1 l 1642 0 b 1805 163 1732 0 1805 73 l 1805 911 b 1744 972 1805 945 1778 972 z "},"o":{"ha":1935,"x_min":0,"x_max":0,"o":"m 69 810 l 69 162 b 232 0 69 73 142 0 l 1703 0 b 1865 162 1792 0 1865 73 l 1865 810 b 1703 972 1865 900 1792 972 l 232 972 b 69 810 142 972 69 900 z m 578 813 l 1357 813 b 1418 752 1390 813 1418 786 l 1418 220 b 1357 159 1418 186 1390 159 l 578 159 b 517 220 544 159 517 186 l 517 752 b 578 813 517 786 544 813 z "},"ò":{"ha":1935,"x_min":0,"x_max":0,"o":"m 69 810 l 69 162 b 232 0 69 73 142 0 l 1703 0 b 1865 162 1792 0 1865 73 l 1865 810 b 1703 972 1865 900 1792 972 l 232 972 b 69 810 142 972 69 900 z m 578 813 l 1357 813 b 1418 752 1390 813 1418 786 l 1418 220 b 1357 159 1418 186 1390 159 l 578 159 b 517 220 544 159 517 186 l 517 752 b 578 813 517 786 544 813 z "},"ó":{"ha":1935,"x_min":0,"x_max":0,"o":"m 69 810 l 69 162 b 232 0 69 73 142 0 l 1703 0 b 1865 162 1792 0 1865 73 l 1865 810 b 1703 972 1865 900 1792 972 l 232 972 b 69 810 142 972 69 900 z m 578 813 l 1357 813 b 1418 752 1390 813 1418 786 l 1418 220 b 1357 159 1418 186 1390 159 l 578 159 b 517 220 544 159 517 186 l 517 752 b 578 813 517 786 544 813 z "},"ô":{"ha":1935,"x_min":0,"x_max":0,"o":"m 69 810 l 69 162 b 232 0 69 73 142 0 l 1703 0 b 1865 162 1792 0 1865 73 l 1865 810 b 1703 972 1865 900 1792 972 l 232 972 b 69 810 142 972 69 900 z m 578 813 l 1357 813 b 1418 752 1390 813 1418 786 l 1418 220 b 1357 159 1418 186 1390 159 l 578 159 b 517 220 544 159 517 186 l 517 752 b 578 813 517 786 544 813 z "},"õ":{"ha":1935,"x_min":0,"x_max":0,"o":"m 69 810 l 69 162 b 232 0 69 73 142 0 l 1703 0 b 1865 162 1792 0 1865 73 l 1865 810 b 1703 972 1865 900 1792 972 l 232 972 b 69 810 142 972 69 900 z m 578 813 l 1357 813 b 1418 752 1390 813 1418 786 l 1418 220 b 1357 159 1418 186 1390 159 l 578 159 b 517 220 544 159 517 186 l 517 752 b 578 813 517 786 544 813 z "},"ö":{"ha":1935,"x_min":0,"x_max":0,"o":"m 69 810 l 69 162 b 232 0 69 73 142 0 l 1703 0 b 1865 162 1792 0 1865 73 l 1865 810 b 1703 972 1865 900 1792 972 l 232 972 b 69 810 142 972 69 900 z m 578 813 l 1357 813 b 1418 752 1390 813 1418 786 l 1418 220 b 1357 159 1418 186 1390 159 l 578 159 b 517 220 544 159 517 186 l 517 752 b 578 813 517 786 544 813 z "},"ø":{"ha":1935,"x_min":0,"x_max":0,"o":"m 69 810 l 69 162 b 232 0 69 73 142 0 l 1703 0 b 1865 162 1792 0 1865 73 l 1865 810 b 1703 972 1865 900 1792 972 l 232 972 b 69 810 142 972 69 900 z m 578 813 l 1357 813 b 1418 752 1390 813 1418 786 l 1418 220 b 1357 159 1418 186 1390 159 l 578 159 b 517 220 544 159 517 186 l 517 752 b 578 813 517 786 544 813 z "},"p":{"ha":1892,"x_min":0,"x_max":0,"o":"m 1664 407 b 1823 566 1752 407 1823 478 l 1823 813 b 1664 972 1823 901 1752 972 l 228 972 b 69 813 141 972 69 901 l 69 61 b 130 0 69 27 97 0 l 456 0 b 517 61 490 0 517 27 l 517 346 b 578 407 517 379 544 407 z m 517 627 l 517 752 b 578 813 517 786 544 813 l 1314 813 b 1375 752 1348 813 1375 786 l 1375 627 b 1314 566 1375 593 1348 566 l 578 566 b 517 627 544 566 517 593 z "},"q":{"ha":1935,"x_min":0,"x_max":0,"o":"m 69 813 l 69 159 b 228 0 69 71 141 0 l 1706 0 b 1865 159 1794 0 1865 71 l 1865 813 b 1706 972 1865 901 1794 972 l 228 972 b 69 813 141 972 69 901 z m 517 211 l 517 761 b 569 813 517 790 540 813 l 1366 813 b 1418 761 1394 813 1418 790 l 1418 474 b 1366 422 1418 445 1394 422 l 988 422 b 908 342 944 422 908 386 b 988 263 908 298 944 263 l 1366 263 b 1418 211 1394 263 1418 240 b 1366 159 1418 182 1394 159 l 569 159 b 517 211 540 159 517 182 z "},"r":{"ha":1892,"x_min":0,"x_max":0,"o":"m 228 972 b 69 813 141 972 69 901 l 69 81 b 151 0 69 36 106 0 l 436 0 b 517 81 481 0 517 36 l 517 732 b 598 813 517 777 553 813 l 1294 813 b 1375 732 1339 813 1375 777 l 1375 647 b 1294 566 1375 602 1339 566 l 1090 566 b 1027 434 1022 566 984 487 l 1351 30 b 1414 0 1366 11 1390 0 l 1738 0 b 1770 66 1772 0 1791 39 l 1549 341 b 1581 407 1528 367 1547 407 l 1664 407 b 1823 566 1752 407 1823 478 l 1823 813 b 1664 972 1823 901 1752 972 z "},"s":{"ha":1892,"x_min":0,"x_max":0,"o":"m 1375 325 l 1375 240 b 1294 159 1375 195 1339 159 l 149 159 b 69 80 105 159 69 123 b 149 0 69 36 105 0 l 1664 0 b 1823 159 1752 0 1823 71 l 1823 407 b 1664 566 1823 494 1752 566 l 598 566 b 517 647 553 566 517 602 l 517 732 b 598 813 517 777 553 813 l 1743 813 b 1823 893 1787 813 1823 849 b 1743 972 1823 937 1787 972 l 228 972 b 69 813 141 972 69 901 l 69 566 b 228 407 69 478 141 407 l 1294 407 b 1375 325 1339 407 1375 370 z "},"t":{"ha":1893,"x_min":0,"x_max":0,"o":"m 1823 892 b 1742 972 1823 936 1787 972 l 151 972 b 69 891 106 972 69 936 l 69 609 b 151 527 69 564 106 527 l 436 527 b 517 609 481 527 517 564 l 517 732 b 598 813 517 777 553 813 l 641 813 b 722 732 686 813 722 777 l 722 81 b 804 0 722 36 759 0 l 1089 0 b 1170 81 1134 0 1170 36 l 1170 732 b 1251 813 1170 777 1206 813 l 1296 813 b 1377 732 1341 813 1377 777 l 1377 609 b 1458 527 1377 564 1413 527 l 1743 527 b 1824 609 1788 527 1824 564 z "},"u":{"ha":1935,"x_min":0,"x_max":0,"o":"m 517 240 l 517 891 b 436 972 517 935 481 972 l 151 972 b 69 891 106 972 69 936 l 69 159 b 228 0 69 71 141 0 l 1706 0 b 1865 159 1794 0 1865 71 l 1865 891 b 1784 972 1865 936 1829 972 l 1499 972 b 1418 891 1454 972 1418 935 l 1418 240 b 1336 159 1418 195 1381 159 l 598 159 b 517 240 553 159 517 195 z "},"ù":{"ha":1935,"x_min":0,"x_max":0,"o":"m 517 240 l 517 891 b 436 972 517 935 481 972 l 151 972 b 69 891 106 972 69 936 l 69 159 b 228 0 69 71 141 0 l 1706 0 b 1865 159 1794 0 1865 71 l 1865 891 b 1784 972 1865 936 1829 972 l 1499 972 b 1418 891 1454 972 1418 935 l 1418 240 b 1336 159 1418 195 1381 159 l 598 159 b 517 240 553 159 517 195 z "},"ú":{"ha":1935,"x_min":0,"x_max":0,"o":"m 517 240 l 517 891 b 436 972 517 935 481 972 l 151 972 b 69 891 106 972 69 936 l 69 159 b 228 0 69 71 141 0 l 1706 0 b 1865 159 1794 0 1865 71 l 1865 891 b 1784 972 1865 936 1829 972 l 1499 972 b 1418 891 1454 972 1418 935 l 1418 240 b 1336 159 1418 195 1381 159 l 598 159 b 517 240 553 159 517 195 z "},"û":{"ha":1935,"x_min":0,"x_max":0,"o":"m 517 240 l 517 891 b 436 972 517 935 481 972 l 151 972 b 69 891 106 972 69 936 l 69 159 b 228 0 69 71 141 0 l 1706 0 b 1865 159 1794 0 1865 71 l 1865 891 b 1784 972 1865 936 1829 972 l 1499 972 b 1418 891 1454 972 1418 935 l 1418 240 b 1336 159 1418 195 1381 159 l 598 159 b 517 240 553 159 517 195 z "},"ü":{"ha":1935,"x_min":0,"x_max":0,"o":"m 517 240 l 517 891 b 436 972 517 935 481 972 l 151 972 b 69 891 106 972 69 936 l 69 159 b 228 0 69 71 141 0 l 1706 0 b 1865 159 1794 0 1865 71 l 1865 891 b 1784 972 1865 936 1829 972 l 1499 972 b 1418 891 1454 972 1418 935 l 1418 240 b 1336 159 1418 195 1381 159 l 598 159 b 517 240 553 159 517 195 z "},"v":{"ha":1935,"x_min":0,"x_max":0,"o":"m 1008 893 b 1087 813 1008 849 1043 813 l 1336 813 b 1418 732 1381 813 1418 777 l 1418 431 b 1146 159 1418 281 1296 159 l 598 159 b 517 240 553 159 517 195 l 517 891 b 436 972 517 935 481 972 l 151 972 b 69 891 106 972 69 936 l 69 159 b 228 0 69 71 141 0 l 1516 0 b 1865 349 1709 0 1865 156 l 1865 891 b 1784 972 1865 936 1829 972 l 1087 972 b 1008 893 1043 972 1008 937 z "},"w":{"ha":1935,"x_min":0,"x_max":0,"o":"m 1706 0 b 1865 159 1794 0 1865 71 l 1865 891 b 1784 972 1865 936 1829 972 l 1499 972 b 1418 891 1454 972 1418 935 l 1418 240 b 1336 159 1418 195 1381 159 l 1272 159 b 1191 240 1227 159 1191 195 l 1191 564 b 1110 645 1191 609 1155 645 l 825 645 b 743 563 780 644 743 608 l 743 240 b 662 159 743 195 707 159 l 598 159 b 517 240 553 159 517 195 l 517 891 b 436 972 517 935 481 972 l 151 972 b 69 891 106 972 69 936 l 69 159 b 228 0 69 71 141 0 z "},"x":{"ha":1875,"x_min":0,"x_max":0,"o":"m 1805 632 l 1805 891 b 1724 972 1805 936 1769 972 l 1439 972 b 1357 891 1394 972 1357 936 l 1357 647 b 1276 566 1357 602 1321 566 l 598 566 b 517 647 553 566 517 602 l 517 891 b 436 972 517 936 481 972 l 151 972 b 69 891 106 972 69 936 l 69 632 b 110 562 69 603 85 577 l 181 521 b 181 451 208 506 208 467 l 110 410 b 69 340 85 396 69 369 l 69 81 b 151 0 69 36 106 0 l 436 0 b 517 81 481 0 517 36 l 517 325 b 598 407 517 370 553 407 l 1276 407 b 1357 325 1321 407 1357 370 l 1357 81 b 1439 0 1357 36 1394 0 l 1724 0 b 1805 81 1769 0 1805 36 l 1805 340 b 1764 410 1805 369 1790 396 l 1694 451 b 1694 521 1667 467 1667 506 l 1764 562 b 1805 632 1789 577 1805 603 z "},"y":{"ha":1892,"x_min":0,"x_max":0,"o":"m 1456 972 b 1375 891 1412 972 1375 936 l 1375 647 b 1294 566 1375 602 1339 566 l 598 566 b 517 647 553 566 517 602 l 517 891 b 436 972 517 936 481 972 l 151 972 b 69 891 106 972 69 936 l 69 488 b 151 407 69 443 106 407 l 1294 407 b 1375 325 1339 407 1375 370 l 1375 240 b 1294 159 1375 195 1339 159 l 149 159 b 69 80 105 159 69 123 b 149 0 69 36 105 0 l 1664 0 b 1823 159 1752 0 1823 71 l 1823 891 b 1742 972 1823 936 1786 972 z "},"ý":{"ha":1892,"x_min":0,"x_max":0,"o":"m 1456 972 b 1375 891 1412 972 1375 936 l 1375 647 b 1294 566 1375 602 1339 566 l 598 566 b 517 647 553 566 517 602 l 517 891 b 436 972 517 936 481 972 l 151 972 b 69 891 106 972 69 936 l 69 488 b 151 407 69 443 106 407 l 1294 407 b 1375 325 1339 407 1375 370 l 1375 240 b 1294 159 1375 195 1339 159 l 149 159 b 69 80 105 159 69 123 b 149 0 69 36 105 0 l 1664 0 b 1823 159 1752 0 1823 71 l 1823 891 b 1742 972 1823 936 1786 972 z "},"ÿ":{"ha":1892,"x_min":0,"x_max":0,"o":"m 1456 972 b 1375 891 1412 972 1375 936 l 1375 647 b 1294 566 1375 602 1339 566 l 598 566 b 517 647 553 566 517 602 l 517 891 b 436 972 517 936 481 972 l 151 972 b 69 891 106 972 69 936 l 69 488 b 151 407 69 443 106 407 l 1294 407 b 1375 325 1339 407 1375 370 l 1375 240 b 1294 159 1375 195 1339 159 l 149 159 b 69 80 105 159 69 123 b 149 0 69 36 105 0 l 1664 0 b 1823 159 1752 0 1823 71 l 1823 891 b 1742 972 1823 936 1786 972 z "},"z":{"ha":1892,"x_min":0,"x_max":0,"o":"m 1664 407 b 1823 566 1752 407 1823 478 l 1823 813 b 1664 972 1823 901 1752 972 l 149 972 b 69 893 105 972 69 937 b 149 813 69 849 105 813 l 1294 813 b 1375 732 1339 813 1375 777 l 1375 647 b 1294 566 1375 602 1339 566 l 228 566 b 69 407 141 566 69 494 l 69 159 b 228 0 69 71 141 0 l 1743 0 b 1823 80 1787 0 1823 36 b 1743 159 1823 123 1787 159 l 598 159 b 517 240 553 159 517 195 l 517 325 b 598 407 517 370 553 407 z "},"{":{"ha":1435,"x_min":0,"x_max":0,"o":"m 1198 623 b 1257 688 1231 627 1257 655 b 1198 752 1257 721 1231 749 b 824 849 984 775 879 795 b 728 1223 770 903 751 1008 b 663 1281 724 1256 696 1281 b 599 1223 630 1281 602 1256 b 502 849 575 1008 556 903 b 127 752 447 795 342 775 b 69 688 94 749 69 721 b 127 623 69 655 94 627 b 502 526 342 600 447 581 b 598 152 556 472 575 367 b 663 94 602 119 630 94 b 728 152 696 94 724 119 b 824 526 751 367 770 472 b 1198 623 879 581 984 600 z m 1338 303 b 1166 347 1239 313 1191 322 b 1122 520 1141 372 1132 421 b 1092 546 1120 535 1107 546 b 1062 520 1077 546 1064 535 b 1018 347 1051 421 1043 372 b 845 303 993 322 944 313 b 819 273 830 301 819 288 b 845 243 819 258 830 245 b 1018 199 944 233 993 224 b 1062 27 1043 174 1051 126 b 1092 0 1064 12 1077 0 b 1122 27 1107 0 1120 12 b 1166 199 1132 126 1141 174 b 1338 243 1191 224 1239 233 b 1365 273 1353 245 1365 258 b 1338 303 1365 288 1353 301 z "},"|":{"ha":1435,"x_min":0,"x_max":0,"o":"m 1198 623 b 1257 688 1231 627 1257 655 b 1198 752 1257 721 1231 749 b 824 849 984 775 879 795 b 728 1223 770 903 751 1008 b 663 1281 724 1256 696 1281 b 599 1223 630 1281 602 1256 b 502 849 575 1008 556 903 b 127 752 447 795 342 775 b 69 688 94 749 69 721 b 127 623 69 655 94 627 b 502 526 342 600 447 581 b 598 152 556 472 575 367 b 663 94 602 119 630 94 b 728 152 696 94 724 119 b 824 526 751 367 770 472 b 1198 623 879 581 984 600 z m 1338 303 b 1166 347 1239 313 1191 322 b 1122 520 1141 372 1132 421 b 1092 546 1120 535 1107 546 b 1062 520 1077 546 1064 535 b 1018 347 1051 421 1043 372 b 845 303 993 322 944 313 b 819 273 830 301 819 288 b 845 243 819 258 830 245 b 1018 199 944 233 993 224 b 1062 27 1043 174 1051 126 b 1092 0 1064 12 1077 0 b 1122 27 1107 0 1120 12 b 1166 199 1132 126 1141 174 b 1338 243 1191 224 1239 233 b 1365 273 1353 245 1365 258 b 1338 303 1365 288 1353 301 z "},"}":{"ha":1435,"x_min":0,"x_max":0,"o":"m 1198 623 b 1257 688 1231 627 1257 655 b 1198 752 1257 721 1231 749 b 824 849 984 775 879 795 b 728 1223 770 903 751 1008 b 663 1281 724 1256 696 1281 b 599 1223 630 1281 602 1256 b 502 849 575 1008 556 903 b 127 752 447 795 342 775 b 69 688 94 749 69 721 b 127 623 69 655 94 627 b 502 526 342 600 447 581 b 598 152 556 472 575 367 b 663 94 602 119 630 94 b 728 152 696 94 724 119 b 824 526 751 367 770 472 b 1198 623 879 581 984 600 z m 1338 303 b 1166 347 1239 313 1191 322 b 1122 520 1141 372 1132 421 b 1092 546 1120 535 1107 546 b 1062 520 1077 546 1064 535 b 1018 347 1051 421 1043 372 b 845 303 993 322 944 313 b 819 273 830 301 819 288 b 845 243 819 258 830 245 b 1018 199 944 233 993 224 b 1062 27 1043 174 1051 126 b 1092 0 1064 12 1077 0 b 1122 27 1107 0 1120 12 b 1166 199 1132 126 1141 174 b 1338 243 1191 224 1239 233 b 1365 273 1353 245 1365 258 b 1338 303 1365 288 1353 301 z "}," ":{"ha":967,"x_min":0,"x_max":0,"o":""},"­":{"ha":0,"x_min":0,"x_max":0,"o":""}}}
